<mxfile host="app.diagrams.net" modified="2021-10-19T09:05:11.716Z" agent="5.0 (X11; Linux x86_64) AppleWebKit/537.36 (KHTML, like Gecko) Chrome/92.0.4515.107 Safari/537.36" etag="0LN-pZHqqX3h6baErXhs" version="15.5.4" type="github" pages="2">
  <diagram id="C5RBs43oDa-KdzZeNtuy" name="TR-diagram">
    <mxGraphModel dx="3995" dy="2541" grid="1" gridSize="10" guides="1" tooltips="1" connect="1" arrows="1" fold="1" page="1" pageScale="1" pageWidth="827" pageHeight="1169" math="0" shadow="0">
      <root>
        <mxCell id="WIyWlLk6GJQsqaUBKTNV-0" />
        <mxCell id="WIyWlLk6GJQsqaUBKTNV-1" parent="WIyWlLk6GJQsqaUBKTNV-0" />
        <mxCell id="mMezJTFC7xv2oT-zZT2E-1" value="Stop" style="shape=table;startSize=30;container=1;collapsible=0;childLayout=tableLayout;fixedRows=1;rowLines=0;fontStyle=1;align=center;pointerEvents=1;" parent="WIyWlLk6GJQsqaUBKTNV-1" vertex="1">
          <mxGeometry x="-10" y="60" width="320" height="240" as="geometry" />
        </mxCell>
        <mxCell id="mMezJTFC7xv2oT-zZT2E-2" value="" style="shape=partialRectangle;html=1;whiteSpace=wrap;collapsible=0;dropTarget=0;pointerEvents=1;fillColor=none;top=0;left=0;bottom=1;right=0;points=[[0,0.5],[1,0.5]];portConstraint=eastwest;" parent="mMezJTFC7xv2oT-zZT2E-1" vertex="1">
          <mxGeometry y="30" width="320" height="30" as="geometry" />
        </mxCell>
        <mxCell id="mMezJTFC7xv2oT-zZT2E-3" value="pk" style="shape=partialRectangle;html=1;whiteSpace=wrap;connectable=0;fillColor=none;top=0;left=0;bottom=0;right=0;overflow=hidden;pointerEvents=1;" parent="mMezJTFC7xv2oT-zZT2E-2" vertex="1">
          <mxGeometry width="40" height="30" as="geometry">
            <mxRectangle width="40" height="30" as="alternateBounds" />
          </mxGeometry>
        </mxCell>
        <mxCell id="mMezJTFC7xv2oT-zZT2E-4" value="station_id" style="shape=partialRectangle;html=1;whiteSpace=wrap;connectable=0;fillColor=none;top=0;left=0;bottom=0;right=0;align=left;spacingLeft=6;overflow=hidden;pointerEvents=1;" parent="mMezJTFC7xv2oT-zZT2E-2" vertex="1">
          <mxGeometry x="40" width="140" height="30" as="geometry">
            <mxRectangle width="140" height="30" as="alternateBounds" />
          </mxGeometry>
        </mxCell>
        <mxCell id="rbRFkUZ83nrCJJ02NnOF-5" value="&lt;span style=&quot;color: rgb(0, 0, 0); font-family: helvetica; font-size: 12px; font-style: normal; font-weight: 400; letter-spacing: normal; text-align: left; text-indent: 0px; text-transform: none; word-spacing: 0px; background-color: rgb(248, 249, 250); display: inline; float: none;&quot;&gt;uuid&lt;/span&gt;" style="shape=partialRectangle;html=1;whiteSpace=wrap;connectable=0;fillColor=none;top=0;left=0;bottom=0;right=0;align=left;spacingLeft=6;overflow=hidden;pointerEvents=1;" vertex="1" parent="mMezJTFC7xv2oT-zZT2E-2">
          <mxGeometry x="180" width="140" height="30" as="geometry">
            <mxRectangle width="140" height="30" as="alternateBounds" />
          </mxGeometry>
        </mxCell>
        <mxCell id="mMezJTFC7xv2oT-zZT2E-5" value="" style="shape=partialRectangle;html=1;whiteSpace=wrap;collapsible=0;dropTarget=0;pointerEvents=1;fillColor=none;top=0;left=0;bottom=0;right=0;points=[[0,0.5],[1,0.5]];portConstraint=eastwest;" parent="mMezJTFC7xv2oT-zZT2E-1" vertex="1">
          <mxGeometry y="60" width="320" height="30" as="geometry" />
        </mxCell>
        <mxCell id="mMezJTFC7xv2oT-zZT2E-6" value="" style="shape=partialRectangle;html=1;whiteSpace=wrap;connectable=0;fillColor=none;top=0;left=0;bottom=0;right=0;overflow=hidden;pointerEvents=1;" parent="mMezJTFC7xv2oT-zZT2E-5" vertex="1">
          <mxGeometry width="40" height="30" as="geometry">
            <mxRectangle width="40" height="30" as="alternateBounds" />
          </mxGeometry>
        </mxCell>
        <mxCell id="mMezJTFC7xv2oT-zZT2E-7" value="name" style="shape=partialRectangle;html=1;whiteSpace=wrap;connectable=0;fillColor=none;top=0;left=0;bottom=0;right=0;align=left;spacingLeft=6;overflow=hidden;pointerEvents=1;" parent="mMezJTFC7xv2oT-zZT2E-5" vertex="1">
          <mxGeometry x="40" width="140" height="30" as="geometry">
            <mxRectangle width="140" height="30" as="alternateBounds" />
          </mxGeometry>
        </mxCell>
        <mxCell id="rbRFkUZ83nrCJJ02NnOF-6" value="char(64)" style="shape=partialRectangle;html=1;whiteSpace=wrap;connectable=0;fillColor=none;top=0;left=0;bottom=0;right=0;align=left;spacingLeft=6;overflow=hidden;pointerEvents=1;" vertex="1" parent="mMezJTFC7xv2oT-zZT2E-5">
          <mxGeometry x="180" width="140" height="30" as="geometry">
            <mxRectangle width="140" height="30" as="alternateBounds" />
          </mxGeometry>
        </mxCell>
        <mxCell id="R4gPVOLTJadMdtTMy1Um-12" style="shape=partialRectangle;html=1;whiteSpace=wrap;collapsible=0;dropTarget=0;pointerEvents=1;fillColor=none;top=0;left=0;bottom=0;right=0;points=[[0,0.5],[1,0.5]];portConstraint=eastwest;" vertex="1" parent="mMezJTFC7xv2oT-zZT2E-1">
          <mxGeometry y="90" width="320" height="30" as="geometry" />
        </mxCell>
        <mxCell id="R4gPVOLTJadMdtTMy1Um-13" style="shape=partialRectangle;html=1;whiteSpace=wrap;connectable=0;fillColor=none;top=0;left=0;bottom=0;right=0;overflow=hidden;pointerEvents=1;" vertex="1" parent="R4gPVOLTJadMdtTMy1Um-12">
          <mxGeometry width="40" height="30" as="geometry">
            <mxRectangle width="40" height="30" as="alternateBounds" />
          </mxGeometry>
        </mxCell>
        <mxCell id="R4gPVOLTJadMdtTMy1Um-14" value="description&lt;span style=&quot;white-space: pre&quot;&gt;	&lt;/span&gt;" style="shape=partialRectangle;html=1;whiteSpace=wrap;connectable=0;fillColor=none;top=0;left=0;bottom=0;right=0;align=left;spacingLeft=6;overflow=hidden;pointerEvents=1;" vertex="1" parent="R4gPVOLTJadMdtTMy1Um-12">
          <mxGeometry x="40" width="140" height="30" as="geometry">
            <mxRectangle width="140" height="30" as="alternateBounds" />
          </mxGeometry>
        </mxCell>
        <mxCell id="R4gPVOLTJadMdtTMy1Um-15" value="char(255)" style="shape=partialRectangle;html=1;whiteSpace=wrap;connectable=0;fillColor=none;top=0;left=0;bottom=0;right=0;align=left;spacingLeft=6;overflow=hidden;pointerEvents=1;" vertex="1" parent="R4gPVOLTJadMdtTMy1Um-12">
          <mxGeometry x="180" width="140" height="30" as="geometry">
            <mxRectangle width="140" height="30" as="alternateBounds" />
          </mxGeometry>
        </mxCell>
        <mxCell id="R4gPVOLTJadMdtTMy1Um-8" style="shape=partialRectangle;html=1;whiteSpace=wrap;collapsible=0;dropTarget=0;pointerEvents=1;fillColor=none;top=0;left=0;bottom=0;right=0;points=[[0,0.5],[1,0.5]];portConstraint=eastwest;" vertex="1" parent="mMezJTFC7xv2oT-zZT2E-1">
          <mxGeometry y="120" width="320" height="30" as="geometry" />
        </mxCell>
        <mxCell id="R4gPVOLTJadMdtTMy1Um-9" style="shape=partialRectangle;html=1;whiteSpace=wrap;connectable=0;fillColor=none;top=0;left=0;bottom=0;right=0;overflow=hidden;pointerEvents=1;" vertex="1" parent="R4gPVOLTJadMdtTMy1Um-8">
          <mxGeometry width="40" height="30" as="geometry">
            <mxRectangle width="40" height="30" as="alternateBounds" />
          </mxGeometry>
        </mxCell>
        <mxCell id="R4gPVOLTJadMdtTMy1Um-10" value="latitude" style="shape=partialRectangle;html=1;whiteSpace=wrap;connectable=0;fillColor=none;top=0;left=0;bottom=0;right=0;align=left;spacingLeft=6;overflow=hidden;pointerEvents=1;" vertex="1" parent="R4gPVOLTJadMdtTMy1Um-8">
          <mxGeometry x="40" width="140" height="30" as="geometry">
            <mxRectangle width="140" height="30" as="alternateBounds" />
          </mxGeometry>
        </mxCell>
        <mxCell id="R4gPVOLTJadMdtTMy1Um-11" value="float" style="shape=partialRectangle;html=1;whiteSpace=wrap;connectable=0;fillColor=none;top=0;left=0;bottom=0;right=0;align=left;spacingLeft=6;overflow=hidden;pointerEvents=1;" vertex="1" parent="R4gPVOLTJadMdtTMy1Um-8">
          <mxGeometry x="180" width="140" height="30" as="geometry">
            <mxRectangle width="140" height="30" as="alternateBounds" />
          </mxGeometry>
        </mxCell>
        <mxCell id="R4gPVOLTJadMdtTMy1Um-4" style="shape=partialRectangle;html=1;whiteSpace=wrap;collapsible=0;dropTarget=0;pointerEvents=1;fillColor=none;top=0;left=0;bottom=0;right=0;points=[[0,0.5],[1,0.5]];portConstraint=eastwest;" vertex="1" parent="mMezJTFC7xv2oT-zZT2E-1">
          <mxGeometry y="150" width="320" height="30" as="geometry" />
        </mxCell>
        <mxCell id="R4gPVOLTJadMdtTMy1Um-5" style="shape=partialRectangle;html=1;whiteSpace=wrap;connectable=0;fillColor=none;top=0;left=0;bottom=0;right=0;overflow=hidden;pointerEvents=1;" vertex="1" parent="R4gPVOLTJadMdtTMy1Um-4">
          <mxGeometry width="40" height="30" as="geometry">
            <mxRectangle width="40" height="30" as="alternateBounds" />
          </mxGeometry>
        </mxCell>
        <mxCell id="R4gPVOLTJadMdtTMy1Um-6" value="longitude" style="shape=partialRectangle;html=1;whiteSpace=wrap;connectable=0;fillColor=none;top=0;left=0;bottom=0;right=0;align=left;spacingLeft=6;overflow=hidden;pointerEvents=1;" vertex="1" parent="R4gPVOLTJadMdtTMy1Um-4">
          <mxGeometry x="40" width="140" height="30" as="geometry">
            <mxRectangle width="140" height="30" as="alternateBounds" />
          </mxGeometry>
        </mxCell>
        <mxCell id="R4gPVOLTJadMdtTMy1Um-7" value="float" style="shape=partialRectangle;html=1;whiteSpace=wrap;connectable=0;fillColor=none;top=0;left=0;bottom=0;right=0;align=left;spacingLeft=6;overflow=hidden;pointerEvents=1;" vertex="1" parent="R4gPVOLTJadMdtTMy1Um-4">
          <mxGeometry x="180" width="140" height="30" as="geometry">
            <mxRectangle width="140" height="30" as="alternateBounds" />
          </mxGeometry>
        </mxCell>
        <mxCell id="R4gPVOLTJadMdtTMy1Um-0" style="shape=partialRectangle;html=1;whiteSpace=wrap;collapsible=0;dropTarget=0;pointerEvents=1;fillColor=none;top=0;left=0;bottom=0;right=0;points=[[0,0.5],[1,0.5]];portConstraint=eastwest;" vertex="1" parent="mMezJTFC7xv2oT-zZT2E-1">
          <mxGeometry y="180" width="320" height="30" as="geometry" />
        </mxCell>
        <mxCell id="R4gPVOLTJadMdtTMy1Um-1" style="shape=partialRectangle;html=1;whiteSpace=wrap;connectable=0;fillColor=none;top=0;left=0;bottom=0;right=0;overflow=hidden;pointerEvents=1;" vertex="1" parent="R4gPVOLTJadMdtTMy1Um-0">
          <mxGeometry width="40" height="30" as="geometry">
            <mxRectangle width="40" height="30" as="alternateBounds" />
          </mxGeometry>
        </mxCell>
        <mxCell id="R4gPVOLTJadMdtTMy1Um-2" style="shape=partialRectangle;html=1;whiteSpace=wrap;connectable=0;fillColor=none;top=0;left=0;bottom=0;right=0;align=left;spacingLeft=6;overflow=hidden;pointerEvents=1;" vertex="1" parent="R4gPVOLTJadMdtTMy1Um-0">
          <mxGeometry x="40" width="140" height="30" as="geometry">
            <mxRectangle width="140" height="30" as="alternateBounds" />
          </mxGeometry>
        </mxCell>
        <mxCell id="R4gPVOLTJadMdtTMy1Um-3" style="shape=partialRectangle;html=1;whiteSpace=wrap;connectable=0;fillColor=none;top=0;left=0;bottom=0;right=0;align=left;spacingLeft=6;overflow=hidden;pointerEvents=1;" vertex="1" parent="R4gPVOLTJadMdtTMy1Um-0">
          <mxGeometry x="180" width="140" height="30" as="geometry">
            <mxRectangle width="140" height="30" as="alternateBounds" />
          </mxGeometry>
        </mxCell>
        <mxCell id="Y8uElw5m9DU9oSRXMzPk-31" value="Transport type" style="shape=table;startSize=30;container=1;collapsible=0;childLayout=tableLayout;fixedRows=1;rowLines=0;fontStyle=1;align=center;pointerEvents=1;" parent="WIyWlLk6GJQsqaUBKTNV-1" vertex="1">
          <mxGeometry x="960" y="80" width="320" height="90" as="geometry" />
        </mxCell>
        <mxCell id="Y8uElw5m9DU9oSRXMzPk-32" value="" style="shape=partialRectangle;html=1;whiteSpace=wrap;collapsible=0;dropTarget=0;pointerEvents=1;fillColor=none;top=0;left=0;bottom=1;right=0;points=[[0,0.5],[1,0.5]];portConstraint=eastwest;" parent="Y8uElw5m9DU9oSRXMzPk-31" vertex="1">
          <mxGeometry y="30" width="320" height="30" as="geometry" />
        </mxCell>
        <mxCell id="Y8uElw5m9DU9oSRXMzPk-33" value="pk" style="shape=partialRectangle;html=1;whiteSpace=wrap;connectable=0;fillColor=none;top=0;left=0;bottom=0;right=0;overflow=hidden;pointerEvents=1;" parent="Y8uElw5m9DU9oSRXMzPk-32" vertex="1">
          <mxGeometry width="40" height="30" as="geometry">
            <mxRectangle width="40" height="30" as="alternateBounds" />
          </mxGeometry>
        </mxCell>
        <mxCell id="Y8uElw5m9DU9oSRXMzPk-34" value="transport_type_id" style="shape=partialRectangle;html=1;whiteSpace=wrap;connectable=0;fillColor=none;top=0;left=0;bottom=0;right=0;align=left;spacingLeft=6;overflow=hidden;pointerEvents=1;" parent="Y8uElw5m9DU9oSRXMzPk-32" vertex="1">
          <mxGeometry x="40" width="140" height="30" as="geometry">
            <mxRectangle width="140" height="30" as="alternateBounds" />
          </mxGeometry>
        </mxCell>
        <mxCell id="rbRFkUZ83nrCJJ02NnOF-4" value="uuid" style="shape=partialRectangle;html=1;whiteSpace=wrap;connectable=0;fillColor=none;top=0;left=0;bottom=0;right=0;align=left;spacingLeft=6;overflow=hidden;pointerEvents=1;" vertex="1" parent="Y8uElw5m9DU9oSRXMzPk-32">
          <mxGeometry x="180" width="140" height="30" as="geometry">
            <mxRectangle width="140" height="30" as="alternateBounds" />
          </mxGeometry>
        </mxCell>
        <mxCell id="Y8uElw5m9DU9oSRXMzPk-41" value="station_transport_type" style="shape=table;startSize=30;container=1;collapsible=0;childLayout=tableLayout;fixedRows=1;rowLines=0;fontStyle=1;align=center;pointerEvents=1;" parent="WIyWlLk6GJQsqaUBKTNV-1" vertex="1">
          <mxGeometry x="480" y="70" width="320" height="120" as="geometry" />
        </mxCell>
        <mxCell id="Y8uElw5m9DU9oSRXMzPk-45" value="" style="shape=partialRectangle;html=1;whiteSpace=wrap;collapsible=0;dropTarget=0;pointerEvents=1;fillColor=none;top=0;left=0;bottom=0;right=0;points=[[0,0.5],[1,0.5]];portConstraint=eastwest;" parent="Y8uElw5m9DU9oSRXMzPk-41" vertex="1">
          <mxGeometry y="30" width="320" height="30" as="geometry" />
        </mxCell>
        <mxCell id="Y8uElw5m9DU9oSRXMzPk-46" value="fk1" style="shape=partialRectangle;html=1;whiteSpace=wrap;connectable=0;fillColor=none;top=0;left=0;bottom=0;right=0;overflow=hidden;pointerEvents=1;" parent="Y8uElw5m9DU9oSRXMzPk-45" vertex="1">
          <mxGeometry width="40" height="30" as="geometry">
            <mxRectangle width="40" height="30" as="alternateBounds" />
          </mxGeometry>
        </mxCell>
        <mxCell id="Y8uElw5m9DU9oSRXMzPk-47" value="station_id" style="shape=partialRectangle;html=1;whiteSpace=wrap;connectable=0;fillColor=none;top=0;left=0;bottom=0;right=0;align=left;spacingLeft=6;overflow=hidden;pointerEvents=1;" parent="Y8uElw5m9DU9oSRXMzPk-45" vertex="1">
          <mxGeometry x="40" width="140" height="30" as="geometry">
            <mxRectangle width="140" height="30" as="alternateBounds" />
          </mxGeometry>
        </mxCell>
        <mxCell id="rbRFkUZ83nrCJJ02NnOF-7" value="&lt;span style=&quot;color: rgb(0, 0, 0); font-family: helvetica; font-size: 12px; font-style: normal; font-weight: 400; letter-spacing: normal; text-align: left; text-indent: 0px; text-transform: none; word-spacing: 0px; background-color: rgb(248, 249, 250); display: inline; float: none;&quot;&gt;uuid&lt;/span&gt;" style="shape=partialRectangle;html=1;whiteSpace=wrap;connectable=0;fillColor=none;top=0;left=0;bottom=0;right=0;align=left;spacingLeft=6;overflow=hidden;pointerEvents=1;" vertex="1" parent="Y8uElw5m9DU9oSRXMzPk-45">
          <mxGeometry x="180" width="140" height="30" as="geometry">
            <mxRectangle width="140" height="30" as="alternateBounds" />
          </mxGeometry>
        </mxCell>
        <mxCell id="Y8uElw5m9DU9oSRXMzPk-48" value="" style="shape=partialRectangle;html=1;whiteSpace=wrap;collapsible=0;dropTarget=0;pointerEvents=1;fillColor=none;top=0;left=0;bottom=0;right=0;points=[[0,0.5],[1,0.5]];portConstraint=eastwest;" parent="Y8uElw5m9DU9oSRXMzPk-41" vertex="1">
          <mxGeometry y="60" width="320" height="30" as="geometry" />
        </mxCell>
        <mxCell id="Y8uElw5m9DU9oSRXMzPk-49" value="fk2" style="shape=partialRectangle;html=1;whiteSpace=wrap;connectable=0;fillColor=none;top=0;left=0;bottom=0;right=0;overflow=hidden;pointerEvents=1;" parent="Y8uElw5m9DU9oSRXMzPk-48" vertex="1">
          <mxGeometry width="40" height="30" as="geometry">
            <mxRectangle width="40" height="30" as="alternateBounds" />
          </mxGeometry>
        </mxCell>
        <mxCell id="Y8uElw5m9DU9oSRXMzPk-50" value="transport_type_id" style="shape=partialRectangle;html=1;whiteSpace=wrap;connectable=0;fillColor=none;top=0;left=0;bottom=0;right=0;align=left;spacingLeft=6;overflow=hidden;pointerEvents=1;" parent="Y8uElw5m9DU9oSRXMzPk-48" vertex="1">
          <mxGeometry x="40" width="140" height="30" as="geometry">
            <mxRectangle width="140" height="30" as="alternateBounds" />
          </mxGeometry>
        </mxCell>
        <mxCell id="rbRFkUZ83nrCJJ02NnOF-8" value="&lt;span style=&quot;color: rgb(0, 0, 0); font-family: helvetica; font-size: 12px; font-style: normal; font-weight: 400; letter-spacing: normal; text-align: left; text-indent: 0px; text-transform: none; word-spacing: 0px; background-color: rgb(248, 249, 250); display: inline; float: none;&quot;&gt;uuid&lt;/span&gt;" style="shape=partialRectangle;html=1;whiteSpace=wrap;connectable=0;fillColor=none;top=0;left=0;bottom=0;right=0;align=left;spacingLeft=6;overflow=hidden;pointerEvents=1;" vertex="1" parent="Y8uElw5m9DU9oSRXMzPk-48">
          <mxGeometry x="180" width="140" height="30" as="geometry">
            <mxRectangle width="140" height="30" as="alternateBounds" />
          </mxGeometry>
        </mxCell>
        <mxCell id="Y8uElw5m9DU9oSRXMzPk-51" style="edgeStyle=orthogonalEdgeStyle;rounded=0;orthogonalLoop=1;jettySize=auto;html=1;exitX=0;exitY=0.5;exitDx=0;exitDy=0;entryX=1;entryY=0.5;entryDx=0;entryDy=0;startArrow=ERone;startFill=0;endArrow=ERzeroToMany;endFill=0;" parent="WIyWlLk6GJQsqaUBKTNV-1" source="Y8uElw5m9DU9oSRXMzPk-45" target="mMezJTFC7xv2oT-zZT2E-2" edge="1">
          <mxGeometry relative="1" as="geometry" />
        </mxCell>
        <mxCell id="Y8uElw5m9DU9oSRXMzPk-52" style="edgeStyle=orthogonalEdgeStyle;rounded=0;orthogonalLoop=1;jettySize=auto;html=1;exitX=1;exitY=0.5;exitDx=0;exitDy=0;entryX=0;entryY=0.5;entryDx=0;entryDy=0;startArrow=ERone;startFill=0;endArrow=ERzeroToMany;endFill=0;" parent="WIyWlLk6GJQsqaUBKTNV-1" source="Y8uElw5m9DU9oSRXMzPk-48" target="Y8uElw5m9DU9oSRXMzPk-32" edge="1">
          <mxGeometry relative="1" as="geometry" />
        </mxCell>
        <mxCell id="Y8uElw5m9DU9oSRXMzPk-53" value="Transport model" style="shape=table;startSize=30;container=1;collapsible=0;childLayout=tableLayout;fixedRows=1;rowLines=0;fontStyle=1;align=center;pointerEvents=1;" parent="WIyWlLk6GJQsqaUBKTNV-1" vertex="1">
          <mxGeometry x="960" y="330" width="320" height="210" as="geometry" />
        </mxCell>
        <mxCell id="Y8uElw5m9DU9oSRXMzPk-54" value="" style="shape=partialRectangle;html=1;whiteSpace=wrap;collapsible=0;dropTarget=0;pointerEvents=1;fillColor=none;top=0;left=0;bottom=1;right=0;points=[[0,0.5],[1,0.5]];portConstraint=eastwest;" parent="Y8uElw5m9DU9oSRXMzPk-53" vertex="1">
          <mxGeometry y="30" width="320" height="30" as="geometry" />
        </mxCell>
        <mxCell id="Y8uElw5m9DU9oSRXMzPk-55" value="pk" style="shape=partialRectangle;html=1;whiteSpace=wrap;connectable=0;fillColor=none;top=0;left=0;bottom=0;right=0;overflow=hidden;pointerEvents=1;" parent="Y8uElw5m9DU9oSRXMzPk-54" vertex="1">
          <mxGeometry width="40" height="30" as="geometry">
            <mxRectangle width="40" height="30" as="alternateBounds" />
          </mxGeometry>
        </mxCell>
        <mxCell id="Y8uElw5m9DU9oSRXMzPk-56" value="transport_model_id" style="shape=partialRectangle;html=1;whiteSpace=wrap;connectable=0;fillColor=none;top=0;left=0;bottom=0;right=0;align=left;spacingLeft=6;overflow=hidden;pointerEvents=1;" parent="Y8uElw5m9DU9oSRXMzPk-54" vertex="1">
          <mxGeometry x="40" width="140" height="30" as="geometry">
            <mxRectangle width="140" height="30" as="alternateBounds" />
          </mxGeometry>
        </mxCell>
        <mxCell id="B9jOD-IoYv9ddkG-poNZ-0" value="uuid" style="shape=partialRectangle;html=1;whiteSpace=wrap;connectable=0;fillColor=none;top=0;left=0;bottom=0;right=0;align=left;spacingLeft=6;overflow=hidden;pointerEvents=1;" vertex="1" parent="Y8uElw5m9DU9oSRXMzPk-54">
          <mxGeometry x="180" width="140" height="30" as="geometry">
            <mxRectangle width="140" height="30" as="alternateBounds" />
          </mxGeometry>
        </mxCell>
        <mxCell id="Y8uElw5m9DU9oSRXMzPk-57" value="" style="shape=partialRectangle;html=1;whiteSpace=wrap;collapsible=0;dropTarget=0;pointerEvents=1;fillColor=none;top=0;left=0;bottom=0;right=0;points=[[0,0.5],[1,0.5]];portConstraint=eastwest;" parent="Y8uElw5m9DU9oSRXMzPk-53" vertex="1">
          <mxGeometry y="60" width="320" height="30" as="geometry" />
        </mxCell>
        <mxCell id="Y8uElw5m9DU9oSRXMzPk-58" value="fk1" style="shape=partialRectangle;html=1;whiteSpace=wrap;connectable=0;fillColor=none;top=0;left=0;bottom=0;right=0;overflow=hidden;pointerEvents=1;" parent="Y8uElw5m9DU9oSRXMzPk-57" vertex="1">
          <mxGeometry width="40" height="30" as="geometry">
            <mxRectangle width="40" height="30" as="alternateBounds" />
          </mxGeometry>
        </mxCell>
        <mxCell id="Y8uElw5m9DU9oSRXMzPk-59" value="type" style="shape=partialRectangle;html=1;whiteSpace=wrap;connectable=0;fillColor=none;top=0;left=0;bottom=0;right=0;align=left;spacingLeft=6;overflow=hidden;pointerEvents=1;" parent="Y8uElw5m9DU9oSRXMzPk-57" vertex="1">
          <mxGeometry x="40" width="140" height="30" as="geometry">
            <mxRectangle width="140" height="30" as="alternateBounds" />
          </mxGeometry>
        </mxCell>
        <mxCell id="B9jOD-IoYv9ddkG-poNZ-1" value="&lt;span&gt;uuid&lt;/span&gt;" style="shape=partialRectangle;html=1;whiteSpace=wrap;connectable=0;fillColor=none;top=0;left=0;bottom=0;right=0;align=left;spacingLeft=6;overflow=hidden;pointerEvents=1;" vertex="1" parent="Y8uElw5m9DU9oSRXMzPk-57">
          <mxGeometry x="180" width="140" height="30" as="geometry">
            <mxRectangle width="140" height="30" as="alternateBounds" />
          </mxGeometry>
        </mxCell>
        <mxCell id="-Z9vyMUAvIwLXoFOAOmF-55" style="shape=partialRectangle;html=1;whiteSpace=wrap;collapsible=0;dropTarget=0;pointerEvents=1;fillColor=none;top=0;left=0;bottom=0;right=0;points=[[0,0.5],[1,0.5]];portConstraint=eastwest;" vertex="1" parent="Y8uElw5m9DU9oSRXMzPk-53">
          <mxGeometry y="90" width="320" height="30" as="geometry" />
        </mxCell>
        <mxCell id="-Z9vyMUAvIwLXoFOAOmF-56" style="shape=partialRectangle;html=1;whiteSpace=wrap;connectable=0;fillColor=none;top=0;left=0;bottom=0;right=0;overflow=hidden;pointerEvents=1;" vertex="1" parent="-Z9vyMUAvIwLXoFOAOmF-55">
          <mxGeometry width="40" height="30" as="geometry">
            <mxRectangle width="40" height="30" as="alternateBounds" />
          </mxGeometry>
        </mxCell>
        <mxCell id="-Z9vyMUAvIwLXoFOAOmF-57" value="name" style="shape=partialRectangle;html=1;whiteSpace=wrap;connectable=0;fillColor=none;top=0;left=0;bottom=0;right=0;align=left;spacingLeft=6;overflow=hidden;pointerEvents=1;" vertex="1" parent="-Z9vyMUAvIwLXoFOAOmF-55">
          <mxGeometry x="40" width="140" height="30" as="geometry">
            <mxRectangle width="140" height="30" as="alternateBounds" />
          </mxGeometry>
        </mxCell>
        <mxCell id="-Z9vyMUAvIwLXoFOAOmF-58" value="char(64)" style="shape=partialRectangle;html=1;whiteSpace=wrap;connectable=0;fillColor=none;top=0;left=0;bottom=0;right=0;align=left;spacingLeft=6;overflow=hidden;pointerEvents=1;" vertex="1" parent="-Z9vyMUAvIwLXoFOAOmF-55">
          <mxGeometry x="180" width="140" height="30" as="geometry">
            <mxRectangle width="140" height="30" as="alternateBounds" />
          </mxGeometry>
        </mxCell>
        <mxCell id="Y8uElw5m9DU9oSRXMzPk-60" value="" style="shape=partialRectangle;html=1;whiteSpace=wrap;collapsible=0;dropTarget=0;pointerEvents=1;fillColor=none;top=0;left=0;bottom=0;right=0;points=[[0,0.5],[1,0.5]];portConstraint=eastwest;" parent="Y8uElw5m9DU9oSRXMzPk-53" vertex="1">
          <mxGeometry y="120" width="320" height="30" as="geometry" />
        </mxCell>
        <mxCell id="Y8uElw5m9DU9oSRXMzPk-61" value="" style="shape=partialRectangle;html=1;whiteSpace=wrap;connectable=0;fillColor=none;top=0;left=0;bottom=0;right=0;overflow=hidden;pointerEvents=1;" parent="Y8uElw5m9DU9oSRXMzPk-60" vertex="1">
          <mxGeometry width="40" height="30" as="geometry">
            <mxRectangle width="40" height="30" as="alternateBounds" />
          </mxGeometry>
        </mxCell>
        <mxCell id="Y8uElw5m9DU9oSRXMzPk-62" value="capacity" style="shape=partialRectangle;html=1;whiteSpace=wrap;connectable=0;fillColor=none;top=0;left=0;bottom=0;right=0;align=left;spacingLeft=6;overflow=hidden;pointerEvents=1;" parent="Y8uElw5m9DU9oSRXMzPk-60" vertex="1">
          <mxGeometry x="40" width="140" height="30" as="geometry">
            <mxRectangle width="140" height="30" as="alternateBounds" />
          </mxGeometry>
        </mxCell>
        <mxCell id="B9jOD-IoYv9ddkG-poNZ-2" value="integer" style="shape=partialRectangle;html=1;whiteSpace=wrap;connectable=0;fillColor=none;top=0;left=0;bottom=0;right=0;align=left;spacingLeft=6;overflow=hidden;pointerEvents=1;" vertex="1" parent="Y8uElw5m9DU9oSRXMzPk-60">
          <mxGeometry x="180" width="140" height="30" as="geometry">
            <mxRectangle width="140" height="30" as="alternateBounds" />
          </mxGeometry>
        </mxCell>
        <mxCell id="Y8uElw5m9DU9oSRXMzPk-63" style="shape=partialRectangle;html=1;whiteSpace=wrap;collapsible=0;dropTarget=0;pointerEvents=1;fillColor=none;top=0;left=0;bottom=0;right=0;points=[[0,0.5],[1,0.5]];portConstraint=eastwest;" parent="Y8uElw5m9DU9oSRXMzPk-53" vertex="1">
          <mxGeometry y="150" width="320" height="30" as="geometry" />
        </mxCell>
        <mxCell id="Y8uElw5m9DU9oSRXMzPk-64" style="shape=partialRectangle;html=1;whiteSpace=wrap;connectable=0;fillColor=none;top=0;left=0;bottom=0;right=0;overflow=hidden;pointerEvents=1;" parent="Y8uElw5m9DU9oSRXMzPk-63" vertex="1">
          <mxGeometry width="40" height="30" as="geometry">
            <mxRectangle width="40" height="30" as="alternateBounds" />
          </mxGeometry>
        </mxCell>
        <mxCell id="Y8uElw5m9DU9oSRXMzPk-65" value="amount of units" style="shape=partialRectangle;html=1;whiteSpace=wrap;connectable=0;fillColor=none;top=0;left=0;bottom=0;right=0;align=left;spacingLeft=6;overflow=hidden;pointerEvents=1;" parent="Y8uElw5m9DU9oSRXMzPk-63" vertex="1">
          <mxGeometry x="40" width="140" height="30" as="geometry">
            <mxRectangle width="140" height="30" as="alternateBounds" />
          </mxGeometry>
        </mxCell>
        <mxCell id="B9jOD-IoYv9ddkG-poNZ-3" value="integer" style="shape=partialRectangle;html=1;whiteSpace=wrap;connectable=0;fillColor=none;top=0;left=0;bottom=0;right=0;align=left;spacingLeft=6;overflow=hidden;pointerEvents=1;" vertex="1" parent="Y8uElw5m9DU9oSRXMzPk-63">
          <mxGeometry x="180" width="140" height="30" as="geometry">
            <mxRectangle width="140" height="30" as="alternateBounds" />
          </mxGeometry>
        </mxCell>
        <mxCell id="Y8uElw5m9DU9oSRXMzPk-66" style="edgeStyle=orthogonalEdgeStyle;rounded=0;orthogonalLoop=1;jettySize=auto;html=1;exitX=1;exitY=0.5;exitDx=0;exitDy=0;entryX=1;entryY=0.5;entryDx=0;entryDy=0;startArrow=ERone;startFill=0;endArrow=ERzeroToMany;endFill=0;" parent="WIyWlLk6GJQsqaUBKTNV-1" source="Y8uElw5m9DU9oSRXMzPk-57" target="Y8uElw5m9DU9oSRXMzPk-32" edge="1">
          <mxGeometry relative="1" as="geometry" />
        </mxCell>
        <mxCell id="Y8uElw5m9DU9oSRXMzPk-67" value="Route_transport_model" style="shape=table;startSize=30;container=1;collapsible=0;childLayout=tableLayout;fixedRows=1;rowLines=0;fontStyle=1;align=center;pointerEvents=1;" parent="WIyWlLk6GJQsqaUBKTNV-1" vertex="1">
          <mxGeometry x="960" y="585" width="320" height="150" as="geometry" />
        </mxCell>
        <mxCell id="Y8uElw5m9DU9oSRXMzPk-71" value="" style="shape=partialRectangle;html=1;whiteSpace=wrap;collapsible=0;dropTarget=0;pointerEvents=1;fillColor=none;top=0;left=0;bottom=0;right=0;points=[[0,0.5],[1,0.5]];portConstraint=eastwest;" parent="Y8uElw5m9DU9oSRXMzPk-67" vertex="1">
          <mxGeometry y="30" width="320" height="30" as="geometry" />
        </mxCell>
        <mxCell id="Y8uElw5m9DU9oSRXMzPk-72" value="fk1" style="shape=partialRectangle;html=1;whiteSpace=wrap;connectable=0;fillColor=none;top=0;left=0;bottom=0;right=0;overflow=hidden;pointerEvents=1;" parent="Y8uElw5m9DU9oSRXMzPk-71" vertex="1">
          <mxGeometry width="40" height="30" as="geometry">
            <mxRectangle width="40" height="30" as="alternateBounds" />
          </mxGeometry>
        </mxCell>
        <mxCell id="Y8uElw5m9DU9oSRXMzPk-73" value="transport_model_id" style="shape=partialRectangle;html=1;whiteSpace=wrap;connectable=0;fillColor=none;top=0;left=0;bottom=0;right=0;align=left;spacingLeft=6;overflow=hidden;pointerEvents=1;" parent="Y8uElw5m9DU9oSRXMzPk-71" vertex="1">
          <mxGeometry x="40" width="140" height="30" as="geometry">
            <mxRectangle width="140" height="30" as="alternateBounds" />
          </mxGeometry>
        </mxCell>
        <mxCell id="rbRFkUZ83nrCJJ02NnOF-0" value="&lt;span style=&quot;color: rgb(0, 0, 0); font-family: helvetica; font-size: 12px; font-style: normal; font-weight: 400; letter-spacing: normal; text-align: left; text-indent: 0px; text-transform: none; word-spacing: 0px; background-color: rgb(248, 249, 250); display: inline; float: none;&quot;&gt;uuid&lt;/span&gt;" style="shape=partialRectangle;html=1;whiteSpace=wrap;connectable=0;fillColor=none;top=0;left=0;bottom=0;right=0;align=left;spacingLeft=6;overflow=hidden;pointerEvents=1;" vertex="1" parent="Y8uElw5m9DU9oSRXMzPk-71">
          <mxGeometry x="180" width="140" height="30" as="geometry">
            <mxRectangle width="140" height="30" as="alternateBounds" />
          </mxGeometry>
        </mxCell>
        <mxCell id="Y8uElw5m9DU9oSRXMzPk-74" value="" style="shape=partialRectangle;html=1;whiteSpace=wrap;collapsible=0;dropTarget=0;pointerEvents=1;fillColor=none;top=0;left=0;bottom=0;right=0;points=[[0,0.5],[1,0.5]];portConstraint=eastwest;" parent="Y8uElw5m9DU9oSRXMzPk-67" vertex="1">
          <mxGeometry y="60" width="320" height="30" as="geometry" />
        </mxCell>
        <mxCell id="Y8uElw5m9DU9oSRXMzPk-75" value="fk2" style="shape=partialRectangle;html=1;whiteSpace=wrap;connectable=0;fillColor=none;top=0;left=0;bottom=0;right=0;overflow=hidden;pointerEvents=1;" parent="Y8uElw5m9DU9oSRXMzPk-74" vertex="1">
          <mxGeometry width="40" height="30" as="geometry">
            <mxRectangle width="40" height="30" as="alternateBounds" />
          </mxGeometry>
        </mxCell>
        <mxCell id="Y8uElw5m9DU9oSRXMzPk-76" value="route_id" style="shape=partialRectangle;html=1;whiteSpace=wrap;connectable=0;fillColor=none;top=0;left=0;bottom=0;right=0;align=left;spacingLeft=6;overflow=hidden;pointerEvents=1;" parent="Y8uElw5m9DU9oSRXMzPk-74" vertex="1">
          <mxGeometry x="40" width="140" height="30" as="geometry">
            <mxRectangle width="140" height="30" as="alternateBounds" />
          </mxGeometry>
        </mxCell>
        <mxCell id="rbRFkUZ83nrCJJ02NnOF-1" value="&lt;span style=&quot;color: rgb(0, 0, 0); font-family: helvetica; font-size: 12px; font-style: normal; font-weight: 400; letter-spacing: normal; text-align: left; text-indent: 0px; text-transform: none; word-spacing: 0px; background-color: rgb(248, 249, 250); display: inline; float: none;&quot;&gt;uuid&lt;/span&gt;" style="shape=partialRectangle;html=1;whiteSpace=wrap;connectable=0;fillColor=none;top=0;left=0;bottom=0;right=0;align=left;spacingLeft=6;overflow=hidden;pointerEvents=1;" vertex="1" parent="Y8uElw5m9DU9oSRXMzPk-74">
          <mxGeometry x="180" width="140" height="30" as="geometry">
            <mxRectangle width="140" height="30" as="alternateBounds" />
          </mxGeometry>
        </mxCell>
        <mxCell id="Y8uElw5m9DU9oSRXMzPk-89" style="shape=partialRectangle;html=1;whiteSpace=wrap;collapsible=0;dropTarget=0;pointerEvents=1;fillColor=none;top=0;left=0;bottom=0;right=0;points=[[0,0.5],[1,0.5]];portConstraint=eastwest;" parent="Y8uElw5m9DU9oSRXMzPk-67" vertex="1">
          <mxGeometry y="90" width="320" height="30" as="geometry" />
        </mxCell>
        <mxCell id="Y8uElw5m9DU9oSRXMzPk-90" style="shape=partialRectangle;html=1;whiteSpace=wrap;connectable=0;fillColor=none;top=0;left=0;bottom=0;right=0;overflow=hidden;pointerEvents=1;" parent="Y8uElw5m9DU9oSRXMzPk-89" vertex="1">
          <mxGeometry width="40" height="30" as="geometry">
            <mxRectangle width="40" height="30" as="alternateBounds" />
          </mxGeometry>
        </mxCell>
        <mxCell id="Y8uElw5m9DU9oSRXMzPk-91" value="amount" style="shape=partialRectangle;html=1;whiteSpace=wrap;connectable=0;fillColor=none;top=0;left=0;bottom=0;right=0;align=left;spacingLeft=6;overflow=hidden;pointerEvents=1;" parent="Y8uElw5m9DU9oSRXMzPk-89" vertex="1">
          <mxGeometry x="40" width="140" height="30" as="geometry">
            <mxRectangle width="140" height="30" as="alternateBounds" />
          </mxGeometry>
        </mxCell>
        <mxCell id="rbRFkUZ83nrCJJ02NnOF-2" value="integer" style="shape=partialRectangle;html=1;whiteSpace=wrap;connectable=0;fillColor=none;top=0;left=0;bottom=0;right=0;align=left;spacingLeft=6;overflow=hidden;pointerEvents=1;" vertex="1" parent="Y8uElw5m9DU9oSRXMzPk-89">
          <mxGeometry x="180" width="140" height="30" as="geometry">
            <mxRectangle width="140" height="30" as="alternateBounds" />
          </mxGeometry>
        </mxCell>
        <mxCell id="Y8uElw5m9DU9oSRXMzPk-77" value="Route" style="shape=table;startSize=30;container=1;collapsible=0;childLayout=tableLayout;fixedRows=1;rowLines=0;fontStyle=1;align=center;pointerEvents=1;" parent="WIyWlLk6GJQsqaUBKTNV-1" vertex="1">
          <mxGeometry x="960" y="850" width="320" height="120" as="geometry" />
        </mxCell>
        <mxCell id="Y8uElw5m9DU9oSRXMzPk-78" value="" style="shape=partialRectangle;html=1;whiteSpace=wrap;collapsible=0;dropTarget=0;pointerEvents=1;fillColor=none;top=0;left=0;bottom=1;right=0;points=[[0,0.5],[1,0.5]];portConstraint=eastwest;" parent="Y8uElw5m9DU9oSRXMzPk-77" vertex="1">
          <mxGeometry y="30" width="320" height="30" as="geometry" />
        </mxCell>
        <mxCell id="Y8uElw5m9DU9oSRXMzPk-79" value="pk" style="shape=partialRectangle;html=1;whiteSpace=wrap;connectable=0;fillColor=none;top=0;left=0;bottom=0;right=0;overflow=hidden;pointerEvents=1;" parent="Y8uElw5m9DU9oSRXMzPk-78" vertex="1">
          <mxGeometry width="40" height="30" as="geometry">
            <mxRectangle width="40" height="30" as="alternateBounds" />
          </mxGeometry>
        </mxCell>
        <mxCell id="Y8uElw5m9DU9oSRXMzPk-80" value="route_id" style="shape=partialRectangle;html=1;whiteSpace=wrap;connectable=0;fillColor=none;top=0;left=0;bottom=0;right=0;align=left;spacingLeft=6;overflow=hidden;pointerEvents=1;" parent="Y8uElw5m9DU9oSRXMzPk-78" vertex="1">
          <mxGeometry x="40" width="140" height="30" as="geometry">
            <mxRectangle width="140" height="30" as="alternateBounds" />
          </mxGeometry>
        </mxCell>
        <mxCell id="rbRFkUZ83nrCJJ02NnOF-3" value="uuid" style="shape=partialRectangle;html=1;whiteSpace=wrap;connectable=0;fillColor=none;top=0;left=0;bottom=0;right=0;align=left;spacingLeft=6;overflow=hidden;pointerEvents=1;" vertex="1" parent="Y8uElw5m9DU9oSRXMzPk-78">
          <mxGeometry x="180" width="140" height="30" as="geometry">
            <mxRectangle width="140" height="30" as="alternateBounds" />
          </mxGeometry>
        </mxCell>
        <mxCell id="-Z9vyMUAvIwLXoFOAOmF-51" style="shape=partialRectangle;html=1;whiteSpace=wrap;collapsible=0;dropTarget=0;pointerEvents=1;fillColor=none;top=0;left=0;bottom=0;right=0;points=[[0,0.5],[1,0.5]];portConstraint=eastwest;" vertex="1" parent="Y8uElw5m9DU9oSRXMzPk-77">
          <mxGeometry y="60" width="320" height="30" as="geometry" />
        </mxCell>
        <mxCell id="-Z9vyMUAvIwLXoFOAOmF-52" value="fk1" style="shape=partialRectangle;html=1;whiteSpace=wrap;connectable=0;fillColor=none;top=0;left=0;bottom=0;right=0;overflow=hidden;pointerEvents=1;" vertex="1" parent="-Z9vyMUAvIwLXoFOAOmF-51">
          <mxGeometry width="40" height="30" as="geometry">
            <mxRectangle width="40" height="30" as="alternateBounds" />
          </mxGeometry>
        </mxCell>
        <mxCell id="-Z9vyMUAvIwLXoFOAOmF-53" value="path_id" style="shape=partialRectangle;html=1;whiteSpace=wrap;connectable=0;fillColor=none;top=0;left=0;bottom=0;right=0;align=left;spacingLeft=6;overflow=hidden;pointerEvents=1;" vertex="1" parent="-Z9vyMUAvIwLXoFOAOmF-51">
          <mxGeometry x="40" width="140" height="30" as="geometry">
            <mxRectangle width="140" height="30" as="alternateBounds" />
          </mxGeometry>
        </mxCell>
        <mxCell id="-Z9vyMUAvIwLXoFOAOmF-54" value="uuid" style="shape=partialRectangle;html=1;whiteSpace=wrap;connectable=0;fillColor=none;top=0;left=0;bottom=0;right=0;align=left;spacingLeft=6;overflow=hidden;pointerEvents=1;" vertex="1" parent="-Z9vyMUAvIwLXoFOAOmF-51">
          <mxGeometry x="180" width="140" height="30" as="geometry">
            <mxRectangle width="140" height="30" as="alternateBounds" />
          </mxGeometry>
        </mxCell>
        <mxCell id="Y8uElw5m9DU9oSRXMzPk-87" style="edgeStyle=orthogonalEdgeStyle;rounded=0;orthogonalLoop=1;jettySize=auto;html=1;exitX=0;exitY=0.5;exitDx=0;exitDy=0;entryX=0;entryY=0.5;entryDx=0;entryDy=0;startArrow=ERone;startFill=0;endArrow=ERzeroToMany;endFill=0;" parent="WIyWlLk6GJQsqaUBKTNV-1" source="Y8uElw5m9DU9oSRXMzPk-71" target="Y8uElw5m9DU9oSRXMzPk-54" edge="1">
          <mxGeometry relative="1" as="geometry" />
        </mxCell>
        <mxCell id="UR2vsH1graWBkpURSrOs-9" style="edgeStyle=orthogonalEdgeStyle;rounded=0;orthogonalLoop=1;jettySize=auto;html=1;exitX=0;exitY=0.5;exitDx=0;exitDy=0;entryX=0;entryY=0.5;entryDx=0;entryDy=0;startArrow=ERzeroToMany;startFill=1;endArrow=ERone;endFill=0;" edge="1" parent="WIyWlLk6GJQsqaUBKTNV-1" source="Y8uElw5m9DU9oSRXMzPk-78" target="Y8uElw5m9DU9oSRXMzPk-74">
          <mxGeometry relative="1" as="geometry">
            <mxPoint x="970" y="640" as="sourcePoint" />
            <mxPoint x="970" y="385" as="targetPoint" />
            <Array as="points">
              <mxPoint x="940" y="895" />
              <mxPoint x="940" y="660" />
            </Array>
          </mxGeometry>
        </mxCell>
        <mxCell id="-Z9vyMUAvIwLXoFOAOmF-21" value="Relation" style="shape=table;startSize=30;container=1;collapsible=0;childLayout=tableLayout;fixedRows=1;rowLines=0;fontStyle=1;align=center;pointerEvents=1;" vertex="1" parent="WIyWlLk6GJQsqaUBKTNV-1">
          <mxGeometry x="-400" y="835" width="320" height="120" as="geometry" />
        </mxCell>
        <mxCell id="-Z9vyMUAvIwLXoFOAOmF-22" value="" style="shape=partialRectangle;html=1;whiteSpace=wrap;collapsible=0;dropTarget=0;pointerEvents=1;fillColor=none;top=0;left=0;bottom=1;right=0;points=[[0,0.5],[1,0.5]];portConstraint=eastwest;" vertex="1" parent="-Z9vyMUAvIwLXoFOAOmF-21">
          <mxGeometry y="30" width="320" height="30" as="geometry" />
        </mxCell>
        <mxCell id="-Z9vyMUAvIwLXoFOAOmF-23" value="pk" style="shape=partialRectangle;html=1;whiteSpace=wrap;connectable=0;fillColor=none;top=0;left=0;bottom=0;right=0;overflow=hidden;pointerEvents=1;" vertex="1" parent="-Z9vyMUAvIwLXoFOAOmF-22">
          <mxGeometry width="40" height="30" as="geometry">
            <mxRectangle width="40" height="30" as="alternateBounds" />
          </mxGeometry>
        </mxCell>
        <mxCell id="-Z9vyMUAvIwLXoFOAOmF-24" value="relation_id" style="shape=partialRectangle;html=1;whiteSpace=wrap;connectable=0;fillColor=none;top=0;left=0;bottom=0;right=0;align=left;spacingLeft=6;overflow=hidden;pointerEvents=1;" vertex="1" parent="-Z9vyMUAvIwLXoFOAOmF-22">
          <mxGeometry x="40" width="140" height="30" as="geometry">
            <mxRectangle width="140" height="30" as="alternateBounds" />
          </mxGeometry>
        </mxCell>
        <mxCell id="-Z9vyMUAvIwLXoFOAOmF-25" value="&lt;span style=&quot;color: rgb(0, 0, 0); font-family: helvetica; font-size: 12px; font-style: normal; font-weight: 400; letter-spacing: normal; text-align: left; text-indent: 0px; text-transform: none; word-spacing: 0px; background-color: rgb(248, 249, 250); display: inline; float: none;&quot;&gt;uuid&lt;/span&gt;" style="shape=partialRectangle;html=1;whiteSpace=wrap;connectable=0;fillColor=none;top=0;left=0;bottom=0;right=0;align=left;spacingLeft=6;overflow=hidden;pointerEvents=1;" vertex="1" parent="-Z9vyMUAvIwLXoFOAOmF-22">
          <mxGeometry x="180" width="140" height="30" as="geometry">
            <mxRectangle width="140" height="30" as="alternateBounds" />
          </mxGeometry>
        </mxCell>
        <mxCell id="-Z9vyMUAvIwLXoFOAOmF-26" value="" style="shape=partialRectangle;html=1;whiteSpace=wrap;collapsible=0;dropTarget=0;pointerEvents=1;fillColor=none;top=0;left=0;bottom=0;right=0;points=[[0,0.5],[1,0.5]];portConstraint=eastwest;" vertex="1" parent="-Z9vyMUAvIwLXoFOAOmF-21">
          <mxGeometry y="60" width="320" height="30" as="geometry" />
        </mxCell>
        <mxCell id="-Z9vyMUAvIwLXoFOAOmF-27" value="" style="shape=partialRectangle;html=1;whiteSpace=wrap;connectable=0;fillColor=none;top=0;left=0;bottom=0;right=0;overflow=hidden;pointerEvents=1;" vertex="1" parent="-Z9vyMUAvIwLXoFOAOmF-26">
          <mxGeometry width="40" height="30" as="geometry">
            <mxRectangle width="40" height="30" as="alternateBounds" />
          </mxGeometry>
        </mxCell>
        <mxCell id="-Z9vyMUAvIwLXoFOAOmF-28" value="name" style="shape=partialRectangle;html=1;whiteSpace=wrap;connectable=0;fillColor=none;top=0;left=0;bottom=0;right=0;align=left;spacingLeft=6;overflow=hidden;pointerEvents=1;" vertex="1" parent="-Z9vyMUAvIwLXoFOAOmF-26">
          <mxGeometry x="40" width="140" height="30" as="geometry">
            <mxRectangle width="140" height="30" as="alternateBounds" />
          </mxGeometry>
        </mxCell>
        <mxCell id="-Z9vyMUAvIwLXoFOAOmF-29" value="char(64)" style="shape=partialRectangle;html=1;whiteSpace=wrap;connectable=0;fillColor=none;top=0;left=0;bottom=0;right=0;align=left;spacingLeft=6;overflow=hidden;pointerEvents=1;" vertex="1" parent="-Z9vyMUAvIwLXoFOAOmF-26">
          <mxGeometry x="180" width="140" height="30" as="geometry">
            <mxRectangle width="140" height="30" as="alternateBounds" />
          </mxGeometry>
        </mxCell>
        <mxCell id="-etrmOFnZ1g_Lhyk_HCo-0" style="edgeStyle=elbowEdgeStyle;rounded=0;orthogonalLoop=1;jettySize=auto;html=1;exitX=0;exitY=0.5;exitDx=0;exitDy=0;entryX=1;entryY=0.5;entryDx=0;entryDy=0;startArrow=ERone;startFill=0;endArrow=classicThin;endFill=1;" edge="1" parent="WIyWlLk6GJQsqaUBKTNV-1" source="-Z9vyMUAvIwLXoFOAOmF-51" target="-Z9vyMUAvIwLXoFOAOmF-22">
          <mxGeometry relative="1" as="geometry" />
        </mxCell>
        <mxCell id="kjN2PlI8V8KFZFVM4c6Q-0" value="Relation_member" style="shape=table;startSize=30;container=1;collapsible=0;childLayout=tableLayout;fixedRows=1;rowLines=0;fontStyle=1;align=center;pointerEvents=1;" vertex="1" parent="WIyWlLk6GJQsqaUBKTNV-1">
          <mxGeometry x="-400" y="520" width="320" height="210" as="geometry" />
        </mxCell>
        <mxCell id="kjN2PlI8V8KFZFVM4c6Q-1" value="" style="shape=partialRectangle;html=1;whiteSpace=wrap;collapsible=0;dropTarget=0;pointerEvents=1;fillColor=none;top=0;left=0;bottom=0;right=0;points=[[0,0.5],[1,0.5]];portConstraint=eastwest;strokeColor=default;" vertex="1" parent="kjN2PlI8V8KFZFVM4c6Q-0">
          <mxGeometry y="30" width="320" height="30" as="geometry" />
        </mxCell>
        <mxCell id="kjN2PlI8V8KFZFVM4c6Q-2" value="pk1,fk1" style="shape=partialRectangle;html=1;whiteSpace=wrap;connectable=0;fillColor=none;top=0;left=0;bottom=0;right=0;overflow=hidden;pointerEvents=1;" vertex="1" parent="kjN2PlI8V8KFZFVM4c6Q-1">
          <mxGeometry width="40" height="30" as="geometry">
            <mxRectangle width="40" height="30" as="alternateBounds" />
          </mxGeometry>
        </mxCell>
        <mxCell id="kjN2PlI8V8KFZFVM4c6Q-3" value="relation_id" style="shape=partialRectangle;html=1;whiteSpace=wrap;connectable=0;fillColor=none;top=0;left=0;bottom=0;right=0;align=left;spacingLeft=6;overflow=hidden;pointerEvents=1;" vertex="1" parent="kjN2PlI8V8KFZFVM4c6Q-1">
          <mxGeometry x="40" width="140" height="30" as="geometry">
            <mxRectangle width="140" height="30" as="alternateBounds" />
          </mxGeometry>
        </mxCell>
        <mxCell id="kjN2PlI8V8KFZFVM4c6Q-4" value="&lt;span style=&quot;color: rgb(0, 0, 0); font-family: helvetica; font-size: 12px; font-style: normal; font-weight: 400; letter-spacing: normal; text-align: left; text-indent: 0px; text-transform: none; word-spacing: 0px; background-color: rgb(248, 249, 250); display: inline; float: none;&quot;&gt;uuid&lt;/span&gt;" style="shape=partialRectangle;html=1;whiteSpace=wrap;connectable=0;fillColor=none;top=0;left=0;bottom=0;right=0;align=left;spacingLeft=6;overflow=hidden;pointerEvents=1;" vertex="1" parent="kjN2PlI8V8KFZFVM4c6Q-1">
          <mxGeometry x="180" width="140" height="30" as="geometry">
            <mxRectangle width="140" height="30" as="alternateBounds" />
          </mxGeometry>
        </mxCell>
        <mxCell id="a4ulR0Mj9va6VRvihr3--0" style="shape=partialRectangle;html=1;whiteSpace=wrap;collapsible=0;dropTarget=0;pointerEvents=1;fillColor=none;top=0;left=0;bottom=0;right=0;points=[[0,0.5],[1,0.5]];portConstraint=eastwest;" vertex="1" parent="kjN2PlI8V8KFZFVM4c6Q-0">
          <mxGeometry y="60" width="320" height="30" as="geometry" />
        </mxCell>
        <mxCell id="a4ulR0Mj9va6VRvihr3--1" value="pk2" style="shape=partialRectangle;html=1;whiteSpace=wrap;connectable=0;fillColor=none;top=0;left=0;bottom=0;right=0;overflow=hidden;pointerEvents=1;" vertex="1" parent="a4ulR0Mj9va6VRvihr3--0">
          <mxGeometry width="40" height="30" as="geometry">
            <mxRectangle width="40" height="30" as="alternateBounds" />
          </mxGeometry>
        </mxCell>
        <mxCell id="a4ulR0Mj9va6VRvihr3--2" value="member_type" style="shape=partialRectangle;html=1;whiteSpace=wrap;connectable=0;fillColor=none;top=0;left=0;bottom=0;right=0;align=left;spacingLeft=6;overflow=hidden;pointerEvents=1;" vertex="1" parent="a4ulR0Mj9va6VRvihr3--0">
          <mxGeometry x="40" width="140" height="30" as="geometry">
            <mxRectangle width="140" height="30" as="alternateBounds" />
          </mxGeometry>
        </mxCell>
        <mxCell id="a4ulR0Mj9va6VRvihr3--3" value="enum" style="shape=partialRectangle;html=1;whiteSpace=wrap;connectable=0;fillColor=none;top=0;left=0;bottom=0;right=0;align=left;spacingLeft=6;overflow=hidden;pointerEvents=1;" vertex="1" parent="a4ulR0Mj9va6VRvihr3--0">
          <mxGeometry x="180" width="140" height="30" as="geometry">
            <mxRectangle width="140" height="30" as="alternateBounds" />
          </mxGeometry>
        </mxCell>
        <mxCell id="IxGpPKBO-FmzGsDhcSsH-0" style="shape=partialRectangle;html=1;whiteSpace=wrap;collapsible=0;dropTarget=0;pointerEvents=1;fillColor=none;top=0;left=0;bottom=0;right=0;points=[[0,0.5],[1,0.5]];portConstraint=eastwest;" vertex="1" parent="kjN2PlI8V8KFZFVM4c6Q-0">
          <mxGeometry y="90" width="320" height="30" as="geometry" />
        </mxCell>
        <mxCell id="IxGpPKBO-FmzGsDhcSsH-1" value="pk3" style="shape=partialRectangle;html=1;whiteSpace=wrap;connectable=0;fillColor=none;top=0;left=0;bottom=0;right=0;overflow=hidden;pointerEvents=1;" vertex="1" parent="IxGpPKBO-FmzGsDhcSsH-0">
          <mxGeometry width="40" height="30" as="geometry">
            <mxRectangle width="40" height="30" as="alternateBounds" />
          </mxGeometry>
        </mxCell>
        <mxCell id="IxGpPKBO-FmzGsDhcSsH-2" value="member_id" style="shape=partialRectangle;html=1;whiteSpace=wrap;connectable=0;fillColor=none;top=0;left=0;bottom=0;right=0;align=left;spacingLeft=6;overflow=hidden;pointerEvents=1;" vertex="1" parent="IxGpPKBO-FmzGsDhcSsH-0">
          <mxGeometry x="40" width="140" height="30" as="geometry">
            <mxRectangle width="140" height="30" as="alternateBounds" />
          </mxGeometry>
        </mxCell>
        <mxCell id="IxGpPKBO-FmzGsDhcSsH-3" value="uuid" style="shape=partialRectangle;html=1;whiteSpace=wrap;connectable=0;fillColor=none;top=0;left=0;bottom=0;right=0;align=left;spacingLeft=6;overflow=hidden;pointerEvents=1;" vertex="1" parent="IxGpPKBO-FmzGsDhcSsH-0">
          <mxGeometry x="180" width="140" height="30" as="geometry">
            <mxRectangle width="140" height="30" as="alternateBounds" />
          </mxGeometry>
        </mxCell>
        <mxCell id="kjN2PlI8V8KFZFVM4c6Q-5" value="" style="shape=partialRectangle;html=1;whiteSpace=wrap;collapsible=0;dropTarget=0;pointerEvents=1;fillColor=none;top=0;left=0;bottom=0;right=0;points=[[0,0.5],[1,0.5]];portConstraint=eastwest;" vertex="1" parent="kjN2PlI8V8KFZFVM4c6Q-0">
          <mxGeometry y="120" width="320" height="30" as="geometry" />
        </mxCell>
        <mxCell id="kjN2PlI8V8KFZFVM4c6Q-6" value="pk4" style="shape=partialRectangle;html=1;whiteSpace=wrap;connectable=0;fillColor=none;top=0;left=0;bottom=0;right=0;overflow=hidden;pointerEvents=1;" vertex="1" parent="kjN2PlI8V8KFZFVM4c6Q-5">
          <mxGeometry width="40" height="30" as="geometry">
            <mxRectangle width="40" height="30" as="alternateBounds" />
          </mxGeometry>
        </mxCell>
        <mxCell id="kjN2PlI8V8KFZFVM4c6Q-7" value="member_role" style="shape=partialRectangle;html=1;whiteSpace=wrap;connectable=0;fillColor=none;top=0;left=0;bottom=0;right=0;align=left;spacingLeft=6;overflow=hidden;pointerEvents=1;" vertex="1" parent="kjN2PlI8V8KFZFVM4c6Q-5">
          <mxGeometry x="40" width="140" height="30" as="geometry">
            <mxRectangle width="140" height="30" as="alternateBounds" />
          </mxGeometry>
        </mxCell>
        <mxCell id="kjN2PlI8V8KFZFVM4c6Q-8" value="char(255)" style="shape=partialRectangle;html=1;whiteSpace=wrap;connectable=0;fillColor=none;top=0;left=0;bottom=0;right=0;align=left;spacingLeft=6;overflow=hidden;pointerEvents=1;" vertex="1" parent="kjN2PlI8V8KFZFVM4c6Q-5">
          <mxGeometry x="180" width="140" height="30" as="geometry">
            <mxRectangle width="140" height="30" as="alternateBounds" />
          </mxGeometry>
        </mxCell>
        <mxCell id="IxGpPKBO-FmzGsDhcSsH-4" style="shape=partialRectangle;html=1;whiteSpace=wrap;collapsible=0;dropTarget=0;pointerEvents=1;fillColor=none;top=0;left=0;bottom=0;right=0;points=[[0,0.5],[1,0.5]];portConstraint=eastwest;" vertex="1" parent="kjN2PlI8V8KFZFVM4c6Q-0">
          <mxGeometry y="150" width="320" height="30" as="geometry" />
        </mxCell>
        <mxCell id="IxGpPKBO-FmzGsDhcSsH-5" value="pk5" style="shape=partialRectangle;html=1;whiteSpace=wrap;connectable=0;fillColor=none;top=0;left=0;bottom=0;right=0;overflow=hidden;pointerEvents=1;" vertex="1" parent="IxGpPKBO-FmzGsDhcSsH-4">
          <mxGeometry width="40" height="30" as="geometry">
            <mxRectangle width="40" height="30" as="alternateBounds" />
          </mxGeometry>
        </mxCell>
        <mxCell id="IxGpPKBO-FmzGsDhcSsH-6" value="sequence_id" style="shape=partialRectangle;html=1;whiteSpace=wrap;connectable=0;fillColor=none;top=0;left=0;bottom=0;right=0;align=left;spacingLeft=6;overflow=hidden;pointerEvents=1;" vertex="1" parent="IxGpPKBO-FmzGsDhcSsH-4">
          <mxGeometry x="40" width="140" height="30" as="geometry">
            <mxRectangle width="140" height="30" as="alternateBounds" />
          </mxGeometry>
        </mxCell>
        <mxCell id="IxGpPKBO-FmzGsDhcSsH-7" value="integer" style="shape=partialRectangle;html=1;whiteSpace=wrap;connectable=0;fillColor=none;top=0;left=0;bottom=0;right=0;align=left;spacingLeft=6;overflow=hidden;pointerEvents=1;" vertex="1" parent="IxGpPKBO-FmzGsDhcSsH-4">
          <mxGeometry x="180" width="140" height="30" as="geometry">
            <mxRectangle width="140" height="30" as="alternateBounds" />
          </mxGeometry>
        </mxCell>
        <mxCell id="ytxgNZXzD06-WScL0SLy-0" value="Node" style="shape=table;startSize=30;container=1;collapsible=0;childLayout=tableLayout;fixedRows=1;rowLines=0;fontStyle=1;align=center;pointerEvents=1;" vertex="1" parent="WIyWlLk6GJQsqaUBKTNV-1">
          <mxGeometry x="-920" y="120" width="320" height="180" as="geometry" />
        </mxCell>
        <mxCell id="ytxgNZXzD06-WScL0SLy-1" value="" style="shape=partialRectangle;html=1;whiteSpace=wrap;collapsible=0;dropTarget=0;pointerEvents=1;fillColor=none;top=0;left=0;bottom=1;right=0;points=[[0,0.5],[1,0.5]];portConstraint=eastwest;" vertex="1" parent="ytxgNZXzD06-WScL0SLy-0">
          <mxGeometry y="30" width="320" height="30" as="geometry" />
        </mxCell>
        <mxCell id="ytxgNZXzD06-WScL0SLy-2" value="pk" style="shape=partialRectangle;html=1;whiteSpace=wrap;connectable=0;fillColor=none;top=0;left=0;bottom=0;right=0;overflow=hidden;pointerEvents=1;" vertex="1" parent="ytxgNZXzD06-WScL0SLy-1">
          <mxGeometry width="40" height="30" as="geometry">
            <mxRectangle width="40" height="30" as="alternateBounds" />
          </mxGeometry>
        </mxCell>
        <mxCell id="ytxgNZXzD06-WScL0SLy-3" value="node_id" style="shape=partialRectangle;html=1;whiteSpace=wrap;connectable=0;fillColor=none;top=0;left=0;bottom=0;right=0;align=left;spacingLeft=6;overflow=hidden;pointerEvents=1;" vertex="1" parent="ytxgNZXzD06-WScL0SLy-1">
          <mxGeometry x="40" width="140" height="30" as="geometry">
            <mxRectangle width="140" height="30" as="alternateBounds" />
          </mxGeometry>
        </mxCell>
        <mxCell id="ytxgNZXzD06-WScL0SLy-4" value="&lt;span style=&quot;color: rgb(0, 0, 0); font-family: helvetica; font-size: 12px; font-style: normal; font-weight: 400; letter-spacing: normal; text-align: left; text-indent: 0px; text-transform: none; word-spacing: 0px; background-color: rgb(248, 249, 250); display: inline; float: none;&quot;&gt;uuid&lt;/span&gt;" style="shape=partialRectangle;html=1;whiteSpace=wrap;connectable=0;fillColor=none;top=0;left=0;bottom=0;right=0;align=left;spacingLeft=6;overflow=hidden;pointerEvents=1;" vertex="1" parent="ytxgNZXzD06-WScL0SLy-1">
          <mxGeometry x="180" width="140" height="30" as="geometry">
            <mxRectangle width="140" height="30" as="alternateBounds" />
          </mxGeometry>
        </mxCell>
        <mxCell id="ytxgNZXzD06-WScL0SLy-5" value="" style="shape=partialRectangle;html=1;whiteSpace=wrap;collapsible=0;dropTarget=0;pointerEvents=1;fillColor=none;top=0;left=0;bottom=0;right=0;points=[[0,0.5],[1,0.5]];portConstraint=eastwest;" vertex="1" parent="ytxgNZXzD06-WScL0SLy-0">
          <mxGeometry y="60" width="320" height="30" as="geometry" />
        </mxCell>
        <mxCell id="ytxgNZXzD06-WScL0SLy-6" value="" style="shape=partialRectangle;html=1;whiteSpace=wrap;connectable=0;fillColor=none;top=0;left=0;bottom=0;right=0;overflow=hidden;pointerEvents=1;" vertex="1" parent="ytxgNZXzD06-WScL0SLy-5">
          <mxGeometry width="40" height="30" as="geometry">
            <mxRectangle width="40" height="30" as="alternateBounds" />
          </mxGeometry>
        </mxCell>
        <mxCell id="ytxgNZXzD06-WScL0SLy-7" value="name" style="shape=partialRectangle;html=1;whiteSpace=wrap;connectable=0;fillColor=none;top=0;left=0;bottom=0;right=0;align=left;spacingLeft=6;overflow=hidden;pointerEvents=1;" vertex="1" parent="ytxgNZXzD06-WScL0SLy-5">
          <mxGeometry x="40" width="140" height="30" as="geometry">
            <mxRectangle width="140" height="30" as="alternateBounds" />
          </mxGeometry>
        </mxCell>
        <mxCell id="ytxgNZXzD06-WScL0SLy-8" value="char(64)" style="shape=partialRectangle;html=1;whiteSpace=wrap;connectable=0;fillColor=none;top=0;left=0;bottom=0;right=0;align=left;spacingLeft=6;overflow=hidden;pointerEvents=1;" vertex="1" parent="ytxgNZXzD06-WScL0SLy-5">
          <mxGeometry x="180" width="140" height="30" as="geometry">
            <mxRectangle width="140" height="30" as="alternateBounds" />
          </mxGeometry>
        </mxCell>
        <mxCell id="ytxgNZXzD06-WScL0SLy-9" style="shape=partialRectangle;html=1;whiteSpace=wrap;collapsible=0;dropTarget=0;pointerEvents=1;fillColor=none;top=0;left=0;bottom=0;right=0;points=[[0,0.5],[1,0.5]];portConstraint=eastwest;" vertex="1" parent="ytxgNZXzD06-WScL0SLy-0">
          <mxGeometry y="90" width="320" height="30" as="geometry" />
        </mxCell>
        <mxCell id="ytxgNZXzD06-WScL0SLy-10" style="shape=partialRectangle;html=1;whiteSpace=wrap;connectable=0;fillColor=none;top=0;left=0;bottom=0;right=0;overflow=hidden;pointerEvents=1;" vertex="1" parent="ytxgNZXzD06-WScL0SLy-9">
          <mxGeometry width="40" height="30" as="geometry">
            <mxRectangle width="40" height="30" as="alternateBounds" />
          </mxGeometry>
        </mxCell>
        <mxCell id="ytxgNZXzD06-WScL0SLy-11" value="latitude" style="shape=partialRectangle;html=1;whiteSpace=wrap;connectable=0;fillColor=none;top=0;left=0;bottom=0;right=0;align=left;spacingLeft=6;overflow=hidden;pointerEvents=1;" vertex="1" parent="ytxgNZXzD06-WScL0SLy-9">
          <mxGeometry x="40" width="140" height="30" as="geometry">
            <mxRectangle width="140" height="30" as="alternateBounds" />
          </mxGeometry>
        </mxCell>
        <mxCell id="ytxgNZXzD06-WScL0SLy-12" value="float" style="shape=partialRectangle;html=1;whiteSpace=wrap;connectable=0;fillColor=none;top=0;left=0;bottom=0;right=0;align=left;spacingLeft=6;overflow=hidden;pointerEvents=1;" vertex="1" parent="ytxgNZXzD06-WScL0SLy-9">
          <mxGeometry x="180" width="140" height="30" as="geometry">
            <mxRectangle width="140" height="30" as="alternateBounds" />
          </mxGeometry>
        </mxCell>
        <mxCell id="ytxgNZXzD06-WScL0SLy-13" style="shape=partialRectangle;html=1;whiteSpace=wrap;collapsible=0;dropTarget=0;pointerEvents=1;fillColor=none;top=0;left=0;bottom=0;right=0;points=[[0,0.5],[1,0.5]];portConstraint=eastwest;" vertex="1" parent="ytxgNZXzD06-WScL0SLy-0">
          <mxGeometry y="120" width="320" height="30" as="geometry" />
        </mxCell>
        <mxCell id="ytxgNZXzD06-WScL0SLy-14" style="shape=partialRectangle;html=1;whiteSpace=wrap;connectable=0;fillColor=none;top=0;left=0;bottom=0;right=0;overflow=hidden;pointerEvents=1;" vertex="1" parent="ytxgNZXzD06-WScL0SLy-13">
          <mxGeometry width="40" height="30" as="geometry">
            <mxRectangle width="40" height="30" as="alternateBounds" />
          </mxGeometry>
        </mxCell>
        <mxCell id="ytxgNZXzD06-WScL0SLy-15" value="longitude" style="shape=partialRectangle;html=1;whiteSpace=wrap;connectable=0;fillColor=none;top=0;left=0;bottom=0;right=0;align=left;spacingLeft=6;overflow=hidden;pointerEvents=1;" vertex="1" parent="ytxgNZXzD06-WScL0SLy-13">
          <mxGeometry x="40" width="140" height="30" as="geometry">
            <mxRectangle width="140" height="30" as="alternateBounds" />
          </mxGeometry>
        </mxCell>
        <mxCell id="ytxgNZXzD06-WScL0SLy-16" value="float" style="shape=partialRectangle;html=1;whiteSpace=wrap;connectable=0;fillColor=none;top=0;left=0;bottom=0;right=0;align=left;spacingLeft=6;overflow=hidden;pointerEvents=1;" vertex="1" parent="ytxgNZXzD06-WScL0SLy-13">
          <mxGeometry x="180" width="140" height="30" as="geometry">
            <mxRectangle width="140" height="30" as="alternateBounds" />
          </mxGeometry>
        </mxCell>
        <mxCell id="JfWhENAOKjzKGG-q3Uby-0" value="Way" style="shape=table;startSize=30;container=1;collapsible=0;childLayout=tableLayout;fixedRows=1;rowLines=0;fontStyle=1;align=center;pointerEvents=1;" vertex="1" parent="WIyWlLk6GJQsqaUBKTNV-1">
          <mxGeometry x="-490" y="-360" width="320" height="120" as="geometry" />
        </mxCell>
        <mxCell id="JfWhENAOKjzKGG-q3Uby-1" value="" style="shape=partialRectangle;html=1;whiteSpace=wrap;collapsible=0;dropTarget=0;pointerEvents=1;fillColor=none;top=0;left=0;bottom=1;right=0;points=[[0,0.5],[1,0.5]];portConstraint=eastwest;" vertex="1" parent="JfWhENAOKjzKGG-q3Uby-0">
          <mxGeometry y="30" width="320" height="30" as="geometry" />
        </mxCell>
        <mxCell id="JfWhENAOKjzKGG-q3Uby-2" value="pk" style="shape=partialRectangle;html=1;whiteSpace=wrap;connectable=0;fillColor=none;top=0;left=0;bottom=0;right=0;overflow=hidden;pointerEvents=1;" vertex="1" parent="JfWhENAOKjzKGG-q3Uby-1">
          <mxGeometry width="40" height="30" as="geometry">
            <mxRectangle width="40" height="30" as="alternateBounds" />
          </mxGeometry>
        </mxCell>
        <mxCell id="JfWhENAOKjzKGG-q3Uby-3" value="way_id" style="shape=partialRectangle;html=1;whiteSpace=wrap;connectable=0;fillColor=none;top=0;left=0;bottom=0;right=0;align=left;spacingLeft=6;overflow=hidden;pointerEvents=1;" vertex="1" parent="JfWhENAOKjzKGG-q3Uby-1">
          <mxGeometry x="40" width="140" height="30" as="geometry">
            <mxRectangle width="140" height="30" as="alternateBounds" />
          </mxGeometry>
        </mxCell>
        <mxCell id="JfWhENAOKjzKGG-q3Uby-4" value="&lt;span style=&quot;color: rgb(0, 0, 0); font-family: helvetica; font-size: 12px; font-style: normal; font-weight: 400; letter-spacing: normal; text-align: left; text-indent: 0px; text-transform: none; word-spacing: 0px; background-color: rgb(248, 249, 250); display: inline; float: none;&quot;&gt;uuid&lt;/span&gt;" style="shape=partialRectangle;html=1;whiteSpace=wrap;connectable=0;fillColor=none;top=0;left=0;bottom=0;right=0;align=left;spacingLeft=6;overflow=hidden;pointerEvents=1;" vertex="1" parent="JfWhENAOKjzKGG-q3Uby-1">
          <mxGeometry x="180" width="140" height="30" as="geometry">
            <mxRectangle width="140" height="30" as="alternateBounds" />
          </mxGeometry>
        </mxCell>
        <mxCell id="JfWhENAOKjzKGG-q3Uby-5" value="" style="shape=partialRectangle;html=1;whiteSpace=wrap;collapsible=0;dropTarget=0;pointerEvents=1;fillColor=none;top=0;left=0;bottom=0;right=0;points=[[0,0.5],[1,0.5]];portConstraint=eastwest;" vertex="1" parent="JfWhENAOKjzKGG-q3Uby-0">
          <mxGeometry y="60" width="320" height="30" as="geometry" />
        </mxCell>
        <mxCell id="JfWhENAOKjzKGG-q3Uby-6" value="" style="shape=partialRectangle;html=1;whiteSpace=wrap;connectable=0;fillColor=none;top=0;left=0;bottom=0;right=0;overflow=hidden;pointerEvents=1;" vertex="1" parent="JfWhENAOKjzKGG-q3Uby-5">
          <mxGeometry width="40" height="30" as="geometry">
            <mxRectangle width="40" height="30" as="alternateBounds" />
          </mxGeometry>
        </mxCell>
        <mxCell id="JfWhENAOKjzKGG-q3Uby-7" value="name" style="shape=partialRectangle;html=1;whiteSpace=wrap;connectable=0;fillColor=none;top=0;left=0;bottom=0;right=0;align=left;spacingLeft=6;overflow=hidden;pointerEvents=1;" vertex="1" parent="JfWhENAOKjzKGG-q3Uby-5">
          <mxGeometry x="40" width="140" height="30" as="geometry">
            <mxRectangle width="140" height="30" as="alternateBounds" />
          </mxGeometry>
        </mxCell>
        <mxCell id="JfWhENAOKjzKGG-q3Uby-8" value="char(64)" style="shape=partialRectangle;html=1;whiteSpace=wrap;connectable=0;fillColor=none;top=0;left=0;bottom=0;right=0;align=left;spacingLeft=6;overflow=hidden;pointerEvents=1;" vertex="1" parent="JfWhENAOKjzKGG-q3Uby-5">
          <mxGeometry x="180" width="140" height="30" as="geometry">
            <mxRectangle width="140" height="30" as="alternateBounds" />
          </mxGeometry>
        </mxCell>
        <mxCell id="jZkvsRLQ91cHq7dh46LB-0" value="way_node" style="shape=table;startSize=30;container=1;collapsible=0;childLayout=tableLayout;fixedRows=1;rowLines=0;fontStyle=1;align=center;pointerEvents=1;" vertex="1" parent="WIyWlLk6GJQsqaUBKTNV-1">
          <mxGeometry x="-920" y="-200" width="320" height="150" as="geometry" />
        </mxCell>
        <mxCell id="jZkvsRLQ91cHq7dh46LB-1" value="" style="shape=partialRectangle;html=1;whiteSpace=wrap;collapsible=0;dropTarget=0;pointerEvents=1;fillColor=none;top=0;left=0;bottom=0;right=0;points=[[0,0.5],[1,0.5]];portConstraint=eastwest;" vertex="1" parent="jZkvsRLQ91cHq7dh46LB-0">
          <mxGeometry y="30" width="320" height="30" as="geometry" />
        </mxCell>
        <mxCell id="jZkvsRLQ91cHq7dh46LB-2" value="fk1" style="shape=partialRectangle;html=1;whiteSpace=wrap;connectable=0;fillColor=none;top=0;left=0;bottom=0;right=0;overflow=hidden;pointerEvents=1;" vertex="1" parent="jZkvsRLQ91cHq7dh46LB-1">
          <mxGeometry width="40" height="30" as="geometry">
            <mxRectangle width="40" height="30" as="alternateBounds" />
          </mxGeometry>
        </mxCell>
        <mxCell id="jZkvsRLQ91cHq7dh46LB-3" value="node_id" style="shape=partialRectangle;html=1;whiteSpace=wrap;connectable=0;fillColor=none;top=0;left=0;bottom=0;right=0;align=left;spacingLeft=6;overflow=hidden;pointerEvents=1;" vertex="1" parent="jZkvsRLQ91cHq7dh46LB-1">
          <mxGeometry x="40" width="140" height="30" as="geometry">
            <mxRectangle width="140" height="30" as="alternateBounds" />
          </mxGeometry>
        </mxCell>
        <mxCell id="jZkvsRLQ91cHq7dh46LB-4" value="&lt;span style=&quot;color: rgb(0, 0, 0); font-family: helvetica; font-size: 12px; font-style: normal; font-weight: 400; letter-spacing: normal; text-align: left; text-indent: 0px; text-transform: none; word-spacing: 0px; background-color: rgb(248, 249, 250); display: inline; float: none;&quot;&gt;uuid&lt;/span&gt;" style="shape=partialRectangle;html=1;whiteSpace=wrap;connectable=0;fillColor=none;top=0;left=0;bottom=0;right=0;align=left;spacingLeft=6;overflow=hidden;pointerEvents=1;" vertex="1" parent="jZkvsRLQ91cHq7dh46LB-1">
          <mxGeometry x="180" width="140" height="30" as="geometry">
            <mxRectangle width="140" height="30" as="alternateBounds" />
          </mxGeometry>
        </mxCell>
        <mxCell id="jZkvsRLQ91cHq7dh46LB-5" value="" style="shape=partialRectangle;html=1;whiteSpace=wrap;collapsible=0;dropTarget=0;pointerEvents=1;fillColor=none;top=0;left=0;bottom=0;right=0;points=[[0,0.5],[1,0.5]];portConstraint=eastwest;" vertex="1" parent="jZkvsRLQ91cHq7dh46LB-0">
          <mxGeometry y="60" width="320" height="30" as="geometry" />
        </mxCell>
        <mxCell id="jZkvsRLQ91cHq7dh46LB-6" value="pk1,fk2" style="shape=partialRectangle;html=1;whiteSpace=wrap;connectable=0;fillColor=none;top=0;left=0;bottom=0;right=0;overflow=hidden;pointerEvents=1;" vertex="1" parent="jZkvsRLQ91cHq7dh46LB-5">
          <mxGeometry width="40" height="30" as="geometry">
            <mxRectangle width="40" height="30" as="alternateBounds" />
          </mxGeometry>
        </mxCell>
        <mxCell id="jZkvsRLQ91cHq7dh46LB-7" value="way_id" style="shape=partialRectangle;html=1;whiteSpace=wrap;connectable=0;fillColor=none;top=0;left=0;bottom=0;right=0;align=left;spacingLeft=6;overflow=hidden;pointerEvents=1;" vertex="1" parent="jZkvsRLQ91cHq7dh46LB-5">
          <mxGeometry x="40" width="140" height="30" as="geometry">
            <mxRectangle width="140" height="30" as="alternateBounds" />
          </mxGeometry>
        </mxCell>
        <mxCell id="jZkvsRLQ91cHq7dh46LB-8" value="uuid" style="shape=partialRectangle;html=1;whiteSpace=wrap;connectable=0;fillColor=none;top=0;left=0;bottom=0;right=0;align=left;spacingLeft=6;overflow=hidden;pointerEvents=1;" vertex="1" parent="jZkvsRLQ91cHq7dh46LB-5">
          <mxGeometry x="180" width="140" height="30" as="geometry">
            <mxRectangle width="140" height="30" as="alternateBounds" />
          </mxGeometry>
        </mxCell>
        <mxCell id="jZkvsRLQ91cHq7dh46LB-9" style="shape=partialRectangle;html=1;whiteSpace=wrap;collapsible=0;dropTarget=0;pointerEvents=1;fillColor=none;top=0;left=0;bottom=0;right=0;points=[[0,0.5],[1,0.5]];portConstraint=eastwest;" vertex="1" parent="jZkvsRLQ91cHq7dh46LB-0">
          <mxGeometry y="90" width="320" height="30" as="geometry" />
        </mxCell>
        <mxCell id="jZkvsRLQ91cHq7dh46LB-10" value="pk2" style="shape=partialRectangle;html=1;whiteSpace=wrap;connectable=0;fillColor=none;top=0;left=0;bottom=0;right=0;overflow=hidden;pointerEvents=1;" vertex="1" parent="jZkvsRLQ91cHq7dh46LB-9">
          <mxGeometry width="40" height="30" as="geometry">
            <mxRectangle width="40" height="30" as="alternateBounds" />
          </mxGeometry>
        </mxCell>
        <mxCell id="jZkvsRLQ91cHq7dh46LB-11" value="sequence_id" style="shape=partialRectangle;html=1;whiteSpace=wrap;connectable=0;fillColor=none;top=0;left=0;bottom=0;right=0;align=left;spacingLeft=6;overflow=hidden;pointerEvents=1;" vertex="1" parent="jZkvsRLQ91cHq7dh46LB-9">
          <mxGeometry x="40" width="140" height="30" as="geometry">
            <mxRectangle width="140" height="30" as="alternateBounds" />
          </mxGeometry>
        </mxCell>
        <mxCell id="jZkvsRLQ91cHq7dh46LB-12" value="integer" style="shape=partialRectangle;html=1;whiteSpace=wrap;connectable=0;fillColor=none;top=0;left=0;bottom=0;right=0;align=left;spacingLeft=6;overflow=hidden;pointerEvents=1;" vertex="1" parent="jZkvsRLQ91cHq7dh46LB-9">
          <mxGeometry x="180" width="140" height="30" as="geometry">
            <mxRectangle width="140" height="30" as="alternateBounds" />
          </mxGeometry>
        </mxCell>
        <mxCell id="jZkvsRLQ91cHq7dh46LB-17" style="edgeStyle=elbowEdgeStyle;rounded=0;orthogonalLoop=1;jettySize=auto;html=1;exitX=1;exitY=0.5;exitDx=0;exitDy=0;entryX=0;entryY=0.5;entryDx=0;entryDy=0;startArrow=ERone;startFill=0;endArrow=ERzeroToMany;endFill=0;" edge="1" parent="WIyWlLk6GJQsqaUBKTNV-1" source="jZkvsRLQ91cHq7dh46LB-5" target="JfWhENAOKjzKGG-q3Uby-1">
          <mxGeometry relative="1" as="geometry" />
        </mxCell>
        <mxCell id="jZkvsRLQ91cHq7dh46LB-18" style="edgeStyle=elbowEdgeStyle;rounded=0;orthogonalLoop=1;jettySize=auto;html=1;exitX=0;exitY=0.5;exitDx=0;exitDy=0;entryX=0;entryY=0.5;entryDx=0;entryDy=0;startArrow=ERone;startFill=0;endArrow=ERzeroToMany;endFill=0;" edge="1" parent="WIyWlLk6GJQsqaUBKTNV-1" source="jZkvsRLQ91cHq7dh46LB-1" target="ytxgNZXzD06-WScL0SLy-1">
          <mxGeometry relative="1" as="geometry">
            <Array as="points">
              <mxPoint x="-960" y="10" />
            </Array>
          </mxGeometry>
        </mxCell>
        <mxCell id="a4ulR0Mj9va6VRvihr3--4" style="edgeStyle=elbowEdgeStyle;rounded=0;orthogonalLoop=1;jettySize=auto;html=1;exitX=0;exitY=0.5;exitDx=0;exitDy=0;entryX=0;entryY=0.5;entryDx=0;entryDy=0;startArrow=ERone;startFill=0;endArrow=ERzeroToMany;endFill=0;" edge="1" parent="WIyWlLk6GJQsqaUBKTNV-1" source="kjN2PlI8V8KFZFVM4c6Q-1" target="-Z9vyMUAvIwLXoFOAOmF-22">
          <mxGeometry relative="1" as="geometry">
            <Array as="points">
              <mxPoint x="-460" y="730" />
            </Array>
          </mxGeometry>
        </mxCell>
        <mxCell id="GJmpiWaJ3WpYswg2cVD6-0" value="Way_tag" style="shape=table;startSize=30;container=1;collapsible=0;childLayout=tableLayout;fixedRows=1;rowLines=0;fontStyle=1;align=center;pointerEvents=1;" vertex="1" parent="WIyWlLk6GJQsqaUBKTNV-1">
          <mxGeometry x="-920" y="-470" width="320" height="150" as="geometry" />
        </mxCell>
        <mxCell id="GJmpiWaJ3WpYswg2cVD6-1" value="" style="shape=partialRectangle;html=1;whiteSpace=wrap;collapsible=0;dropTarget=0;pointerEvents=1;fillColor=none;top=0;left=0;bottom=0;right=0;points=[[0,0.5],[1,0.5]];portConstraint=eastwest;" vertex="1" parent="GJmpiWaJ3WpYswg2cVD6-0">
          <mxGeometry y="30" width="320" height="30" as="geometry" />
        </mxCell>
        <mxCell id="GJmpiWaJ3WpYswg2cVD6-2" value="pk1, fk1" style="shape=partialRectangle;html=1;whiteSpace=wrap;connectable=0;fillColor=none;top=0;left=0;bottom=0;right=0;overflow=hidden;pointerEvents=1;" vertex="1" parent="GJmpiWaJ3WpYswg2cVD6-1">
          <mxGeometry width="40" height="30" as="geometry">
            <mxRectangle width="40" height="30" as="alternateBounds" />
          </mxGeometry>
        </mxCell>
        <mxCell id="GJmpiWaJ3WpYswg2cVD6-3" value="way_id" style="shape=partialRectangle;html=1;whiteSpace=wrap;connectable=0;fillColor=none;top=0;left=0;bottom=0;right=0;align=left;spacingLeft=6;overflow=hidden;pointerEvents=1;" vertex="1" parent="GJmpiWaJ3WpYswg2cVD6-1">
          <mxGeometry x="40" width="140" height="30" as="geometry">
            <mxRectangle width="140" height="30" as="alternateBounds" />
          </mxGeometry>
        </mxCell>
        <mxCell id="GJmpiWaJ3WpYswg2cVD6-4" value="&lt;span style=&quot;color: rgb(0, 0, 0); font-family: helvetica; font-size: 12px; font-style: normal; font-weight: 400; letter-spacing: normal; text-align: left; text-indent: 0px; text-transform: none; word-spacing: 0px; background-color: rgb(248, 249, 250); display: inline; float: none;&quot;&gt;uuid&lt;/span&gt;" style="shape=partialRectangle;html=1;whiteSpace=wrap;connectable=0;fillColor=none;top=0;left=0;bottom=0;right=0;align=left;spacingLeft=6;overflow=hidden;pointerEvents=1;" vertex="1" parent="GJmpiWaJ3WpYswg2cVD6-1">
          <mxGeometry x="180" width="140" height="30" as="geometry">
            <mxRectangle width="140" height="30" as="alternateBounds" />
          </mxGeometry>
        </mxCell>
        <mxCell id="GJmpiWaJ3WpYswg2cVD6-5" value="" style="shape=partialRectangle;html=1;whiteSpace=wrap;collapsible=0;dropTarget=0;pointerEvents=1;fillColor=none;top=0;left=0;bottom=0;right=0;points=[[0,0.5],[1,0.5]];portConstraint=eastwest;" vertex="1" parent="GJmpiWaJ3WpYswg2cVD6-0">
          <mxGeometry y="60" width="320" height="30" as="geometry" />
        </mxCell>
        <mxCell id="GJmpiWaJ3WpYswg2cVD6-6" value="pk2" style="shape=partialRectangle;html=1;whiteSpace=wrap;connectable=0;fillColor=none;top=0;left=0;bottom=0;right=0;overflow=hidden;pointerEvents=1;" vertex="1" parent="GJmpiWaJ3WpYswg2cVD6-5">
          <mxGeometry width="40" height="30" as="geometry">
            <mxRectangle width="40" height="30" as="alternateBounds" />
          </mxGeometry>
        </mxCell>
        <mxCell id="GJmpiWaJ3WpYswg2cVD6-7" value="key" style="shape=partialRectangle;html=1;whiteSpace=wrap;connectable=0;fillColor=none;top=0;left=0;bottom=0;right=0;align=left;spacingLeft=6;overflow=hidden;pointerEvents=1;" vertex="1" parent="GJmpiWaJ3WpYswg2cVD6-5">
          <mxGeometry x="40" width="140" height="30" as="geometry">
            <mxRectangle width="140" height="30" as="alternateBounds" />
          </mxGeometry>
        </mxCell>
        <mxCell id="GJmpiWaJ3WpYswg2cVD6-8" value="char(255)" style="shape=partialRectangle;html=1;whiteSpace=wrap;connectable=0;fillColor=none;top=0;left=0;bottom=0;right=0;align=left;spacingLeft=6;overflow=hidden;pointerEvents=1;" vertex="1" parent="GJmpiWaJ3WpYswg2cVD6-5">
          <mxGeometry x="180" width="140" height="30" as="geometry">
            <mxRectangle width="140" height="30" as="alternateBounds" />
          </mxGeometry>
        </mxCell>
        <mxCell id="GJmpiWaJ3WpYswg2cVD6-9" style="shape=partialRectangle;html=1;whiteSpace=wrap;collapsible=0;dropTarget=0;pointerEvents=1;fillColor=none;top=0;left=0;bottom=0;right=0;points=[[0,0.5],[1,0.5]];portConstraint=eastwest;" vertex="1" parent="GJmpiWaJ3WpYswg2cVD6-0">
          <mxGeometry y="90" width="320" height="30" as="geometry" />
        </mxCell>
        <mxCell id="GJmpiWaJ3WpYswg2cVD6-10" style="shape=partialRectangle;html=1;whiteSpace=wrap;connectable=0;fillColor=none;top=0;left=0;bottom=0;right=0;overflow=hidden;pointerEvents=1;" vertex="1" parent="GJmpiWaJ3WpYswg2cVD6-9">
          <mxGeometry width="40" height="30" as="geometry">
            <mxRectangle width="40" height="30" as="alternateBounds" />
          </mxGeometry>
        </mxCell>
        <mxCell id="GJmpiWaJ3WpYswg2cVD6-11" value="value" style="shape=partialRectangle;html=1;whiteSpace=wrap;connectable=0;fillColor=none;top=0;left=0;bottom=0;right=0;align=left;spacingLeft=6;overflow=hidden;pointerEvents=1;" vertex="1" parent="GJmpiWaJ3WpYswg2cVD6-9">
          <mxGeometry x="40" width="140" height="30" as="geometry">
            <mxRectangle width="140" height="30" as="alternateBounds" />
          </mxGeometry>
        </mxCell>
        <mxCell id="GJmpiWaJ3WpYswg2cVD6-12" value="char(255)" style="shape=partialRectangle;html=1;whiteSpace=wrap;connectable=0;fillColor=none;top=0;left=0;bottom=0;right=0;align=left;spacingLeft=6;overflow=hidden;pointerEvents=1;" vertex="1" parent="GJmpiWaJ3WpYswg2cVD6-9">
          <mxGeometry x="180" width="140" height="30" as="geometry">
            <mxRectangle width="140" height="30" as="alternateBounds" />
          </mxGeometry>
        </mxCell>
        <mxCell id="GJmpiWaJ3WpYswg2cVD6-18" style="edgeStyle=elbowEdgeStyle;rounded=0;orthogonalLoop=1;jettySize=auto;html=1;exitX=1;exitY=0.5;exitDx=0;exitDy=0;entryX=0;entryY=0.5;entryDx=0;entryDy=0;startArrow=ERone;startFill=0;endArrow=ERzeroToMany;endFill=0;" edge="1" parent="WIyWlLk6GJQsqaUBKTNV-1" source="GJmpiWaJ3WpYswg2cVD6-1" target="JfWhENAOKjzKGG-q3Uby-1">
          <mxGeometry relative="1" as="geometry" />
        </mxCell>
        <mxCell id="GJmpiWaJ3WpYswg2cVD6-19" value="Node_tag" style="shape=table;startSize=30;container=1;collapsible=0;childLayout=tableLayout;fixedRows=1;rowLines=0;fontStyle=1;align=center;pointerEvents=1;" vertex="1" parent="WIyWlLk6GJQsqaUBKTNV-1">
          <mxGeometry x="-1430" y="135" width="320" height="150" as="geometry" />
        </mxCell>
        <mxCell id="GJmpiWaJ3WpYswg2cVD6-20" value="" style="shape=partialRectangle;html=1;whiteSpace=wrap;collapsible=0;dropTarget=0;pointerEvents=1;fillColor=none;top=0;left=0;bottom=0;right=0;points=[[0,0.5],[1,0.5]];portConstraint=eastwest;" vertex="1" parent="GJmpiWaJ3WpYswg2cVD6-19">
          <mxGeometry y="30" width="320" height="30" as="geometry" />
        </mxCell>
        <mxCell id="GJmpiWaJ3WpYswg2cVD6-21" value="pk1, fk1" style="shape=partialRectangle;html=1;whiteSpace=wrap;connectable=0;fillColor=none;top=0;left=0;bottom=0;right=0;overflow=hidden;pointerEvents=1;" vertex="1" parent="GJmpiWaJ3WpYswg2cVD6-20">
          <mxGeometry width="40" height="30" as="geometry">
            <mxRectangle width="40" height="30" as="alternateBounds" />
          </mxGeometry>
        </mxCell>
        <mxCell id="GJmpiWaJ3WpYswg2cVD6-22" value="node_id" style="shape=partialRectangle;html=1;whiteSpace=wrap;connectable=0;fillColor=none;top=0;left=0;bottom=0;right=0;align=left;spacingLeft=6;overflow=hidden;pointerEvents=1;" vertex="1" parent="GJmpiWaJ3WpYswg2cVD6-20">
          <mxGeometry x="40" width="140" height="30" as="geometry">
            <mxRectangle width="140" height="30" as="alternateBounds" />
          </mxGeometry>
        </mxCell>
        <mxCell id="GJmpiWaJ3WpYswg2cVD6-23" value="&lt;span style=&quot;color: rgb(0, 0, 0); font-family: helvetica; font-size: 12px; font-style: normal; font-weight: 400; letter-spacing: normal; text-align: left; text-indent: 0px; text-transform: none; word-spacing: 0px; background-color: rgb(248, 249, 250); display: inline; float: none;&quot;&gt;uuid&lt;/span&gt;" style="shape=partialRectangle;html=1;whiteSpace=wrap;connectable=0;fillColor=none;top=0;left=0;bottom=0;right=0;align=left;spacingLeft=6;overflow=hidden;pointerEvents=1;" vertex="1" parent="GJmpiWaJ3WpYswg2cVD6-20">
          <mxGeometry x="180" width="140" height="30" as="geometry">
            <mxRectangle width="140" height="30" as="alternateBounds" />
          </mxGeometry>
        </mxCell>
        <mxCell id="GJmpiWaJ3WpYswg2cVD6-24" value="" style="shape=partialRectangle;html=1;whiteSpace=wrap;collapsible=0;dropTarget=0;pointerEvents=1;fillColor=none;top=0;left=0;bottom=0;right=0;points=[[0,0.5],[1,0.5]];portConstraint=eastwest;" vertex="1" parent="GJmpiWaJ3WpYswg2cVD6-19">
          <mxGeometry y="60" width="320" height="30" as="geometry" />
        </mxCell>
        <mxCell id="GJmpiWaJ3WpYswg2cVD6-25" value="pk2" style="shape=partialRectangle;html=1;whiteSpace=wrap;connectable=0;fillColor=none;top=0;left=0;bottom=0;right=0;overflow=hidden;pointerEvents=1;" vertex="1" parent="GJmpiWaJ3WpYswg2cVD6-24">
          <mxGeometry width="40" height="30" as="geometry">
            <mxRectangle width="40" height="30" as="alternateBounds" />
          </mxGeometry>
        </mxCell>
        <mxCell id="GJmpiWaJ3WpYswg2cVD6-26" value="key" style="shape=partialRectangle;html=1;whiteSpace=wrap;connectable=0;fillColor=none;top=0;left=0;bottom=0;right=0;align=left;spacingLeft=6;overflow=hidden;pointerEvents=1;" vertex="1" parent="GJmpiWaJ3WpYswg2cVD6-24">
          <mxGeometry x="40" width="140" height="30" as="geometry">
            <mxRectangle width="140" height="30" as="alternateBounds" />
          </mxGeometry>
        </mxCell>
        <mxCell id="GJmpiWaJ3WpYswg2cVD6-27" value="char(255)" style="shape=partialRectangle;html=1;whiteSpace=wrap;connectable=0;fillColor=none;top=0;left=0;bottom=0;right=0;align=left;spacingLeft=6;overflow=hidden;pointerEvents=1;" vertex="1" parent="GJmpiWaJ3WpYswg2cVD6-24">
          <mxGeometry x="180" width="140" height="30" as="geometry">
            <mxRectangle width="140" height="30" as="alternateBounds" />
          </mxGeometry>
        </mxCell>
        <mxCell id="GJmpiWaJ3WpYswg2cVD6-28" style="shape=partialRectangle;html=1;whiteSpace=wrap;collapsible=0;dropTarget=0;pointerEvents=1;fillColor=none;top=0;left=0;bottom=0;right=0;points=[[0,0.5],[1,0.5]];portConstraint=eastwest;" vertex="1" parent="GJmpiWaJ3WpYswg2cVD6-19">
          <mxGeometry y="90" width="320" height="30" as="geometry" />
        </mxCell>
        <mxCell id="GJmpiWaJ3WpYswg2cVD6-29" style="shape=partialRectangle;html=1;whiteSpace=wrap;connectable=0;fillColor=none;top=0;left=0;bottom=0;right=0;overflow=hidden;pointerEvents=1;" vertex="1" parent="GJmpiWaJ3WpYswg2cVD6-28">
          <mxGeometry width="40" height="30" as="geometry">
            <mxRectangle width="40" height="30" as="alternateBounds" />
          </mxGeometry>
        </mxCell>
        <mxCell id="GJmpiWaJ3WpYswg2cVD6-30" value="value" style="shape=partialRectangle;html=1;whiteSpace=wrap;connectable=0;fillColor=none;top=0;left=0;bottom=0;right=0;align=left;spacingLeft=6;overflow=hidden;pointerEvents=1;" vertex="1" parent="GJmpiWaJ3WpYswg2cVD6-28">
          <mxGeometry x="40" width="140" height="30" as="geometry">
            <mxRectangle width="140" height="30" as="alternateBounds" />
          </mxGeometry>
        </mxCell>
        <mxCell id="GJmpiWaJ3WpYswg2cVD6-31" value="char(255)" style="shape=partialRectangle;html=1;whiteSpace=wrap;connectable=0;fillColor=none;top=0;left=0;bottom=0;right=0;align=left;spacingLeft=6;overflow=hidden;pointerEvents=1;" vertex="1" parent="GJmpiWaJ3WpYswg2cVD6-28">
          <mxGeometry x="180" width="140" height="30" as="geometry">
            <mxRectangle width="140" height="30" as="alternateBounds" />
          </mxGeometry>
        </mxCell>
        <mxCell id="GJmpiWaJ3WpYswg2cVD6-32" style="edgeStyle=elbowEdgeStyle;rounded=0;orthogonalLoop=1;jettySize=auto;html=1;exitX=1;exitY=0.5;exitDx=0;exitDy=0;entryX=0;entryY=0.5;entryDx=0;entryDy=0;startArrow=ERone;startFill=0;endArrow=ERzeroToMany;endFill=0;" edge="1" parent="WIyWlLk6GJQsqaUBKTNV-1" source="GJmpiWaJ3WpYswg2cVD6-20" target="ytxgNZXzD06-WScL0SLy-1">
          <mxGeometry relative="1" as="geometry" />
        </mxCell>
        <mxCell id="GJmpiWaJ3WpYswg2cVD6-33" value="Relation_tag" style="shape=table;startSize=30;container=1;collapsible=0;childLayout=tableLayout;fixedRows=1;rowLines=0;fontStyle=1;align=center;pointerEvents=1;" vertex="1" parent="WIyWlLk6GJQsqaUBKTNV-1">
          <mxGeometry x="-1090" y="835" width="320" height="150" as="geometry" />
        </mxCell>
        <mxCell id="GJmpiWaJ3WpYswg2cVD6-34" value="" style="shape=partialRectangle;html=1;whiteSpace=wrap;collapsible=0;dropTarget=0;pointerEvents=1;fillColor=none;top=0;left=0;bottom=0;right=0;points=[[0,0.5],[1,0.5]];portConstraint=eastwest;" vertex="1" parent="GJmpiWaJ3WpYswg2cVD6-33">
          <mxGeometry y="30" width="320" height="30" as="geometry" />
        </mxCell>
        <mxCell id="GJmpiWaJ3WpYswg2cVD6-35" value="pk1, fk1" style="shape=partialRectangle;html=1;whiteSpace=wrap;connectable=0;fillColor=none;top=0;left=0;bottom=0;right=0;overflow=hidden;pointerEvents=1;" vertex="1" parent="GJmpiWaJ3WpYswg2cVD6-34">
          <mxGeometry width="40" height="30" as="geometry">
            <mxRectangle width="40" height="30" as="alternateBounds" />
          </mxGeometry>
        </mxCell>
        <mxCell id="GJmpiWaJ3WpYswg2cVD6-36" value="node_id" style="shape=partialRectangle;html=1;whiteSpace=wrap;connectable=0;fillColor=none;top=0;left=0;bottom=0;right=0;align=left;spacingLeft=6;overflow=hidden;pointerEvents=1;" vertex="1" parent="GJmpiWaJ3WpYswg2cVD6-34">
          <mxGeometry x="40" width="140" height="30" as="geometry">
            <mxRectangle width="140" height="30" as="alternateBounds" />
          </mxGeometry>
        </mxCell>
        <mxCell id="GJmpiWaJ3WpYswg2cVD6-37" value="&lt;span style=&quot;color: rgb(0, 0, 0); font-family: helvetica; font-size: 12px; font-style: normal; font-weight: 400; letter-spacing: normal; text-align: left; text-indent: 0px; text-transform: none; word-spacing: 0px; background-color: rgb(248, 249, 250); display: inline; float: none;&quot;&gt;uuid&lt;/span&gt;" style="shape=partialRectangle;html=1;whiteSpace=wrap;connectable=0;fillColor=none;top=0;left=0;bottom=0;right=0;align=left;spacingLeft=6;overflow=hidden;pointerEvents=1;" vertex="1" parent="GJmpiWaJ3WpYswg2cVD6-34">
          <mxGeometry x="180" width="140" height="30" as="geometry">
            <mxRectangle width="140" height="30" as="alternateBounds" />
          </mxGeometry>
        </mxCell>
        <mxCell id="GJmpiWaJ3WpYswg2cVD6-38" value="" style="shape=partialRectangle;html=1;whiteSpace=wrap;collapsible=0;dropTarget=0;pointerEvents=1;fillColor=none;top=0;left=0;bottom=0;right=0;points=[[0,0.5],[1,0.5]];portConstraint=eastwest;" vertex="1" parent="GJmpiWaJ3WpYswg2cVD6-33">
          <mxGeometry y="60" width="320" height="30" as="geometry" />
        </mxCell>
        <mxCell id="GJmpiWaJ3WpYswg2cVD6-39" value="pk2" style="shape=partialRectangle;html=1;whiteSpace=wrap;connectable=0;fillColor=none;top=0;left=0;bottom=0;right=0;overflow=hidden;pointerEvents=1;" vertex="1" parent="GJmpiWaJ3WpYswg2cVD6-38">
          <mxGeometry width="40" height="30" as="geometry">
            <mxRectangle width="40" height="30" as="alternateBounds" />
          </mxGeometry>
        </mxCell>
        <mxCell id="GJmpiWaJ3WpYswg2cVD6-40" value="key" style="shape=partialRectangle;html=1;whiteSpace=wrap;connectable=0;fillColor=none;top=0;left=0;bottom=0;right=0;align=left;spacingLeft=6;overflow=hidden;pointerEvents=1;" vertex="1" parent="GJmpiWaJ3WpYswg2cVD6-38">
          <mxGeometry x="40" width="140" height="30" as="geometry">
            <mxRectangle width="140" height="30" as="alternateBounds" />
          </mxGeometry>
        </mxCell>
        <mxCell id="GJmpiWaJ3WpYswg2cVD6-41" value="char(255)" style="shape=partialRectangle;html=1;whiteSpace=wrap;connectable=0;fillColor=none;top=0;left=0;bottom=0;right=0;align=left;spacingLeft=6;overflow=hidden;pointerEvents=1;" vertex="1" parent="GJmpiWaJ3WpYswg2cVD6-38">
          <mxGeometry x="180" width="140" height="30" as="geometry">
            <mxRectangle width="140" height="30" as="alternateBounds" />
          </mxGeometry>
        </mxCell>
        <mxCell id="GJmpiWaJ3WpYswg2cVD6-42" style="shape=partialRectangle;html=1;whiteSpace=wrap;collapsible=0;dropTarget=0;pointerEvents=1;fillColor=none;top=0;left=0;bottom=0;right=0;points=[[0,0.5],[1,0.5]];portConstraint=eastwest;" vertex="1" parent="GJmpiWaJ3WpYswg2cVD6-33">
          <mxGeometry y="90" width="320" height="30" as="geometry" />
        </mxCell>
        <mxCell id="GJmpiWaJ3WpYswg2cVD6-43" style="shape=partialRectangle;html=1;whiteSpace=wrap;connectable=0;fillColor=none;top=0;left=0;bottom=0;right=0;overflow=hidden;pointerEvents=1;" vertex="1" parent="GJmpiWaJ3WpYswg2cVD6-42">
          <mxGeometry width="40" height="30" as="geometry">
            <mxRectangle width="40" height="30" as="alternateBounds" />
          </mxGeometry>
        </mxCell>
        <mxCell id="GJmpiWaJ3WpYswg2cVD6-44" value="value" style="shape=partialRectangle;html=1;whiteSpace=wrap;connectable=0;fillColor=none;top=0;left=0;bottom=0;right=0;align=left;spacingLeft=6;overflow=hidden;pointerEvents=1;" vertex="1" parent="GJmpiWaJ3WpYswg2cVD6-42">
          <mxGeometry x="40" width="140" height="30" as="geometry">
            <mxRectangle width="140" height="30" as="alternateBounds" />
          </mxGeometry>
        </mxCell>
        <mxCell id="GJmpiWaJ3WpYswg2cVD6-45" value="char(255)" style="shape=partialRectangle;html=1;whiteSpace=wrap;connectable=0;fillColor=none;top=0;left=0;bottom=0;right=0;align=left;spacingLeft=6;overflow=hidden;pointerEvents=1;" vertex="1" parent="GJmpiWaJ3WpYswg2cVD6-42">
          <mxGeometry x="180" width="140" height="30" as="geometry">
            <mxRectangle width="140" height="30" as="alternateBounds" />
          </mxGeometry>
        </mxCell>
        <mxCell id="GJmpiWaJ3WpYswg2cVD6-46" style="edgeStyle=elbowEdgeStyle;rounded=0;orthogonalLoop=1;jettySize=auto;html=1;exitX=1;exitY=0.5;exitDx=0;exitDy=0;entryX=0;entryY=0.5;entryDx=0;entryDy=0;startArrow=ERone;startFill=0;endArrow=ERzeroToMany;endFill=0;" edge="1" parent="WIyWlLk6GJQsqaUBKTNV-1" source="GJmpiWaJ3WpYswg2cVD6-34" target="-Z9vyMUAvIwLXoFOAOmF-22">
          <mxGeometry relative="1" as="geometry" />
        </mxCell>
      </root>
    </mxGraphModel>
  </diagram>
  <diagram id="xzyfWhtyMdyFil6afKkc" name="ER-diagram">
    <mxGraphModel dx="3995" dy="2541" grid="1" gridSize="10" guides="1" tooltips="1" connect="1" arrows="1" fold="1" page="1" pageScale="1" pageWidth="827" pageHeight="1169" math="0" shadow="0">
      <root>
        <mxCell id="Rih6IUOuQE-28_pNxOKQ-0" />
        <mxCell id="Rih6IUOuQE-28_pNxOKQ-1" parent="Rih6IUOuQE-28_pNxOKQ-0" />
        <mxCell id="LOXCWFG5L1Vneurc7tVI-66" value="(0,*)" style="edgeStyle=none;curved=1;rounded=0;orthogonalLoop=1;jettySize=auto;html=1;exitX=1;exitY=0.5;exitDx=0;exitDy=0;endArrow=none;endFill=0;startSize=8;endSize=8;sourcePerimeterSpacing=8;targetPerimeterSpacing=8;" parent="Rih6IUOuQE-28_pNxOKQ-1" source="XfI4zxfOpPHzSRZgf_Fb-0" edge="1">
          <mxGeometry relative="1" as="geometry">
            <mxPoint x="600" y="110" as="targetPoint" />
          </mxGeometry>
        </mxCell>
        <mxCell id="XfI4zxfOpPHzSRZgf_Fb-0" value="Stop" style="rounded=0;whiteSpace=wrap;html=1;hachureGap=4;pointerEvents=0;fillColor=#f0a30a;strokeColor=#BD7000;fontColor=#000000;" parent="Rih6IUOuQE-28_pNxOKQ-1" vertex="1">
          <mxGeometry x="330" y="80" width="120" height="60" as="geometry" />
        </mxCell>
        <mxCell id="PxVT0QkClvL3WLSChhmv-1" value="name" style="ellipse;whiteSpace=wrap;html=1;hachureGap=4;pointerEvents=0;fillColor=#e3c800;strokeColor=#B09500;fontColor=#000000;" parent="Rih6IUOuQE-28_pNxOKQ-1" vertex="1">
          <mxGeometry x="260" y="-20" width="90" height="50" as="geometry" />
        </mxCell>
        <mxCell id="PxVT0QkClvL3WLSChhmv-2" value="max number of passengers" style="ellipse;whiteSpace=wrap;html=1;hachureGap=4;pointerEvents=0;fillColor=#e3c800;strokeColor=#B09500;fontColor=#000000;" parent="Rih6IUOuQE-28_pNxOKQ-1" vertex="1">
          <mxGeometry x="440" y="-20" width="90" height="50" as="geometry" />
        </mxCell>
        <mxCell id="PxVT0QkClvL3WLSChhmv-3" value="" style="endArrow=none;html=1;startSize=14;endSize=14;sourcePerimeterSpacing=8;targetPerimeterSpacing=8;entryX=0.5;entryY=1;entryDx=0;entryDy=0;exitX=0.25;exitY=0;exitDx=0;exitDy=0;" parent="Rih6IUOuQE-28_pNxOKQ-1" source="XfI4zxfOpPHzSRZgf_Fb-0" target="PxVT0QkClvL3WLSChhmv-1" edge="1">
          <mxGeometry width="50" height="50" relative="1" as="geometry">
            <mxPoint x="390" y="350" as="sourcePoint" />
            <mxPoint x="440" y="300" as="targetPoint" />
          </mxGeometry>
        </mxCell>
        <mxCell id="PxVT0QkClvL3WLSChhmv-5" value="" style="endArrow=none;html=1;startSize=14;endSize=14;sourcePerimeterSpacing=8;targetPerimeterSpacing=8;entryX=0.5;entryY=1;entryDx=0;entryDy=0;exitX=0.75;exitY=0;exitDx=0;exitDy=0;" parent="Rih6IUOuQE-28_pNxOKQ-1" source="XfI4zxfOpPHzSRZgf_Fb-0" target="PxVT0QkClvL3WLSChhmv-2" edge="1">
          <mxGeometry width="50" height="50" relative="1" as="geometry">
            <mxPoint x="380" y="100" as="sourcePoint" />
            <mxPoint x="315" y="90" as="targetPoint" />
          </mxGeometry>
        </mxCell>
        <mxCell id="LOXCWFG5L1Vneurc7tVI-68" value="(0,*)" style="edgeStyle=none;curved=1;rounded=0;orthogonalLoop=1;jettySize=auto;html=1;exitX=0.5;exitY=0;exitDx=0;exitDy=0;entryX=0.5;entryY=1;entryDx=0;entryDy=0;endArrow=none;endFill=0;startSize=8;endSize=8;sourcePerimeterSpacing=8;targetPerimeterSpacing=8;startArrow=none;startFill=0;" parent="Rih6IUOuQE-28_pNxOKQ-1" source="50AnLVC14oPkvM5k95Td-1" edge="1">
          <mxGeometry relative="1" as="geometry">
            <mxPoint x="886" y="300" as="targetPoint" />
          </mxGeometry>
        </mxCell>
        <mxCell id="QW9lvrsDVZ8piF68p5I8-11" style="edgeStyle=none;rounded=0;orthogonalLoop=1;jettySize=auto;html=1;exitX=1;exitY=0;exitDx=0;exitDy=0;entryX=0.267;entryY=0.92;entryDx=0;entryDy=0;entryPerimeter=0;endArrow=none;endFill=0;" edge="1" parent="Rih6IUOuQE-28_pNxOKQ-1" source="50AnLVC14oPkvM5k95Td-1" target="QW9lvrsDVZ8piF68p5I8-10">
          <mxGeometry relative="1" as="geometry" />
        </mxCell>
        <mxCell id="50AnLVC14oPkvM5k95Td-1" value="Transport models" style="rounded=0;whiteSpace=wrap;html=1;hachureGap=4;pointerEvents=0;fillColor=#f0a30a;strokeColor=#BD7000;fontColor=#000000;" parent="Rih6IUOuQE-28_pNxOKQ-1" vertex="1">
          <mxGeometry x="827" y="400" width="120" height="60" as="geometry" />
        </mxCell>
        <mxCell id="_IvYuJ_MbqGWTePuStyI-0" value="capacity" style="ellipse;whiteSpace=wrap;html=1;hachureGap=4;pointerEvents=0;fillColor=#e3c800;strokeColor=#B09500;fontColor=#000000;" parent="Rih6IUOuQE-28_pNxOKQ-1" vertex="1">
          <mxGeometry x="980" y="350" width="90" height="50" as="geometry" />
        </mxCell>
        <mxCell id="jYT_Nfl6HvXHu5jBoqVi-1" value="amount of units" style="ellipse;whiteSpace=wrap;html=1;hachureGap=4;pointerEvents=0;fillColor=#e3c800;strokeColor=#B09500;fontColor=#000000;" parent="Rih6IUOuQE-28_pNxOKQ-1" vertex="1">
          <mxGeometry x="980" y="460" width="90" height="50" as="geometry" />
        </mxCell>
        <mxCell id="jYT_Nfl6HvXHu5jBoqVi-2" value="" style="endArrow=none;html=1;startSize=14;endSize=14;sourcePerimeterSpacing=8;targetPerimeterSpacing=8;entryX=0;entryY=0.5;entryDx=0;entryDy=0;exitX=1;exitY=0.25;exitDx=0;exitDy=0;" parent="Rih6IUOuQE-28_pNxOKQ-1" source="50AnLVC14oPkvM5k95Td-1" target="_IvYuJ_MbqGWTePuStyI-0" edge="1">
          <mxGeometry width="50" height="50" relative="1" as="geometry">
            <mxPoint x="430" y="380" as="sourcePoint" />
            <mxPoint x="660" y="165" as="targetPoint" />
          </mxGeometry>
        </mxCell>
        <mxCell id="jYT_Nfl6HvXHu5jBoqVi-5" value="" style="endArrow=none;html=1;startSize=14;endSize=14;sourcePerimeterSpacing=8;targetPerimeterSpacing=8;entryX=0;entryY=0.5;entryDx=0;entryDy=0;exitX=1;exitY=0.75;exitDx=0;exitDy=0;" parent="Rih6IUOuQE-28_pNxOKQ-1" source="50AnLVC14oPkvM5k95Td-1" target="jYT_Nfl6HvXHu5jBoqVi-1" edge="1">
          <mxGeometry width="50" height="50" relative="1" as="geometry">
            <mxPoint x="660" y="225" as="sourcePoint" />
            <mxPoint x="680" y="185" as="targetPoint" />
          </mxGeometry>
        </mxCell>
        <mxCell id="7mGdoQh8vaBqSwKNeFjL-28" value="use&lt;br&gt;" style="rhombus;whiteSpace=wrap;html=1;hachureGap=4;pointerEvents=0;fillColor=#6d8764;strokeColor=#3A5431;fontColor=#ffffff;" parent="Rih6IUOuQE-28_pNxOKQ-1" vertex="1">
          <mxGeometry x="847" y="550" width="80" height="60" as="geometry" />
        </mxCell>
        <mxCell id="7mGdoQh8vaBqSwKNeFjL-29" value="" style="endArrow=none;html=1;startSize=14;endSize=14;sourcePerimeterSpacing=8;targetPerimeterSpacing=8;exitX=0.5;exitY=0;exitDx=0;exitDy=0;endFill=0;entryX=0.5;entryY=1;entryDx=0;entryDy=0;" parent="Rih6IUOuQE-28_pNxOKQ-1" source="v1jYdd2YxKOqB0_LmH17-0" target="7mGdoQh8vaBqSwKNeFjL-28" edge="1">
          <mxGeometry relative="1" as="geometry">
            <mxPoint x="590" y="200" as="sourcePoint" />
            <mxPoint x="590" y="150" as="targetPoint" />
          </mxGeometry>
        </mxCell>
        <mxCell id="7mGdoQh8vaBqSwKNeFjL-30" value="(0,*)" style="edgeLabel;resizable=0;html=1;align=center;verticalAlign=middle;" parent="7mGdoQh8vaBqSwKNeFjL-29" connectable="0" vertex="1">
          <mxGeometry relative="1" as="geometry" />
        </mxCell>
        <mxCell id="7mGdoQh8vaBqSwKNeFjL-31" value="(1,*)" style="endArrow=none;html=1;startSize=14;endSize=14;sourcePerimeterSpacing=8;targetPerimeterSpacing=8;endFill=0;exitX=0.5;exitY=0;exitDx=0;exitDy=0;entryX=0.5;entryY=1;entryDx=0;entryDy=0;" parent="Rih6IUOuQE-28_pNxOKQ-1" source="7mGdoQh8vaBqSwKNeFjL-28" target="50AnLVC14oPkvM5k95Td-1" edge="1">
          <mxGeometry relative="1" as="geometry">
            <mxPoint x="580" y="290" as="sourcePoint" />
            <mxPoint x="460" y="120" as="targetPoint" />
            <Array as="points" />
          </mxGeometry>
        </mxCell>
        <mxCell id="LOXCWFG5L1Vneurc7tVI-82" value="(0,1)" style="edgeStyle=none;curved=1;rounded=0;orthogonalLoop=1;jettySize=auto;html=1;exitX=0;exitY=0.5;exitDx=0;exitDy=0;entryX=1;entryY=0.5;entryDx=0;entryDy=0;fontColor=#000000;startArrow=none;startFill=0;endArrow=none;endFill=0;startSize=8;endSize=8;sourcePerimeterSpacing=8;targetPerimeterSpacing=8;" parent="Rih6IUOuQE-28_pNxOKQ-1" source="v1jYdd2YxKOqB0_LmH17-0" target="LOXCWFG5L1Vneurc7tVI-81" edge="1">
          <mxGeometry relative="1" as="geometry" />
        </mxCell>
        <mxCell id="v1jYdd2YxKOqB0_LmH17-0" value="Route" style="rounded=0;whiteSpace=wrap;html=1;hachureGap=4;pointerEvents=0;fillColor=#f0a30a;strokeColor=#BD7000;fontColor=#000000;" parent="Rih6IUOuQE-28_pNxOKQ-1" vertex="1">
          <mxGeometry x="827" y="690" width="120" height="60" as="geometry" />
        </mxCell>
        <mxCell id="LOXCWFG5L1Vneurc7tVI-53" style="edgeStyle=none;curved=1;rounded=0;orthogonalLoop=1;jettySize=auto;html=1;exitX=0.75;exitY=1;exitDx=0;exitDy=0;entryX=0.5;entryY=0;entryDx=0;entryDy=0;endArrow=none;endFill=0;startSize=8;endSize=8;sourcePerimeterSpacing=8;targetPerimeterSpacing=8;" parent="Rih6IUOuQE-28_pNxOKQ-1" source="PRSKFAlq4l8zL4JBxz10-1" target="LOXCWFG5L1Vneurc7tVI-48" edge="1">
          <mxGeometry relative="1" as="geometry" />
        </mxCell>
        <mxCell id="LOXCWFG5L1Vneurc7tVI-54" style="edgeStyle=none;curved=1;rounded=0;orthogonalLoop=1;jettySize=auto;html=1;exitX=0.5;exitY=1;exitDx=0;exitDy=0;entryX=0.5;entryY=0;entryDx=0;entryDy=0;endArrow=none;endFill=0;startSize=8;endSize=8;sourcePerimeterSpacing=8;targetPerimeterSpacing=8;" parent="Rih6IUOuQE-28_pNxOKQ-1" source="PRSKFAlq4l8zL4JBxz10-1" target="LOXCWFG5L1Vneurc7tVI-49" edge="1">
          <mxGeometry relative="1" as="geometry" />
        </mxCell>
        <mxCell id="LOXCWFG5L1Vneurc7tVI-55" style="edgeStyle=none;curved=1;rounded=0;orthogonalLoop=1;jettySize=auto;html=1;exitX=0.25;exitY=1;exitDx=0;exitDy=0;entryX=0.5;entryY=0;entryDx=0;entryDy=0;endArrow=none;endFill=0;startSize=8;endSize=8;sourcePerimeterSpacing=8;targetPerimeterSpacing=8;" parent="Rih6IUOuQE-28_pNxOKQ-1" source="PRSKFAlq4l8zL4JBxz10-1" target="LOXCWFG5L1Vneurc7tVI-47" edge="1">
          <mxGeometry relative="1" as="geometry" />
        </mxCell>
        <mxCell id="PRSKFAlq4l8zL4JBxz10-1" value="Node" style="rounded=0;whiteSpace=wrap;html=1;hachureGap=4;pointerEvents=0;fillColor=#f0a30a;strokeColor=#BD7000;fontColor=#000000;" parent="Rih6IUOuQE-28_pNxOKQ-1" vertex="1">
          <mxGeometry x="-390" y="80" width="120" height="60" as="geometry" />
        </mxCell>
        <mxCell id="PRSKFAlq4l8zL4JBxz10-2" value="Way" style="rounded=0;whiteSpace=wrap;html=1;hachureGap=4;pointerEvents=0;fillColor=#f0a30a;strokeColor=#BD7000;fontColor=#000000;" parent="Rih6IUOuQE-28_pNxOKQ-1" vertex="1">
          <mxGeometry x="-70" y="-190" width="120" height="60" as="geometry" />
        </mxCell>
        <mxCell id="PRSKFAlq4l8zL4JBxz10-3" value="Transport type" style="rounded=0;whiteSpace=wrap;html=1;hachureGap=4;pointerEvents=0;fillColor=#f0a30a;strokeColor=#BD7000;fontColor=#000000;" parent="Rih6IUOuQE-28_pNxOKQ-1" vertex="1">
          <mxGeometry x="826" y="80" width="120" height="60" as="geometry" />
        </mxCell>
        <mxCell id="PRSKFAlq4l8zL4JBxz10-4" value="Relations" style="rounded=0;whiteSpace=wrap;html=1;hachureGap=4;pointerEvents=0;fillColor=#f0a30a;strokeColor=#BD7000;fontColor=#000000;" parent="Rih6IUOuQE-28_pNxOKQ-1" vertex="1">
          <mxGeometry x="-70" y="690" width="120" height="60" as="geometry" />
        </mxCell>
        <mxCell id="PRSKFAlq4l8zL4JBxz10-15" value="(1, 1)" style="edgeStyle=orthogonalEdgeStyle;rounded=0;orthogonalLoop=1;jettySize=auto;html=1;exitX=0.5;exitY=0;exitDx=0;exitDy=0;entryX=0.5;entryY=1;entryDx=0;entryDy=0;endArrow=none;endFill=0;" parent="Rih6IUOuQE-28_pNxOKQ-1" source="PRSKFAlq4l8zL4JBxz10-5" target="PRSKFAlq4l8zL4JBxz10-10" edge="1">
          <mxGeometry relative="1" as="geometry">
            <mxPoint x="-10" y="150" as="targetPoint" />
          </mxGeometry>
        </mxCell>
        <mxCell id="LOXCWFG5L1Vneurc7tVI-4" style="edgeStyle=none;curved=1;rounded=0;orthogonalLoop=1;jettySize=auto;html=1;exitX=1;exitY=0.25;exitDx=0;exitDy=0;entryX=0;entryY=0.5;entryDx=0;entryDy=0;endArrow=none;endFill=0;startSize=8;endSize=8;sourcePerimeterSpacing=8;targetPerimeterSpacing=8;" parent="Rih6IUOuQE-28_pNxOKQ-1" source="PRSKFAlq4l8zL4JBxz10-5" target="LOXCWFG5L1Vneurc7tVI-3" edge="1">
          <mxGeometry relative="1" as="geometry" />
        </mxCell>
        <mxCell id="LOXCWFG5L1Vneurc7tVI-6" style="edgeStyle=none;curved=1;rounded=0;orthogonalLoop=1;jettySize=auto;html=1;exitX=1;exitY=0.75;exitDx=0;exitDy=0;entryX=0;entryY=0.5;entryDx=0;entryDy=0;endArrow=none;endFill=0;startSize=8;endSize=8;sourcePerimeterSpacing=8;targetPerimeterSpacing=8;" parent="Rih6IUOuQE-28_pNxOKQ-1" source="PRSKFAlq4l8zL4JBxz10-5" target="LOXCWFG5L1Vneurc7tVI-5" edge="1">
          <mxGeometry relative="1" as="geometry" />
        </mxCell>
        <mxCell id="LOXCWFG5L1Vneurc7tVI-7" value="(1, 1)" style="edgeStyle=none;curved=1;rounded=0;orthogonalLoop=1;jettySize=auto;html=1;exitX=0.5;exitY=1;exitDx=0;exitDy=0;endArrow=classic;endFill=1;startSize=8;endSize=8;sourcePerimeterSpacing=8;targetPerimeterSpacing=8;entryX=0.5;entryY=0;entryDx=0;entryDy=0;" parent="Rih6IUOuQE-28_pNxOKQ-1" source="PRSKFAlq4l8zL4JBxz10-5" target="LOXCWFG5L1Vneurc7tVI-9" edge="1">
          <mxGeometry relative="1" as="geometry">
            <mxPoint x="-10" y="550" as="targetPoint" />
          </mxGeometry>
        </mxCell>
        <mxCell id="PRSKFAlq4l8zL4JBxz10-5" value="Relations members" style="rounded=0;whiteSpace=wrap;html=1;hachureGap=4;pointerEvents=0;fillColor=#f0a30a;strokeColor=#BD7000;fontColor=#000000;" parent="Rih6IUOuQE-28_pNxOKQ-1" vertex="1">
          <mxGeometry x="-70" y="400" width="120" height="60" as="geometry" />
        </mxCell>
        <mxCell id="LOXCWFG5L1Vneurc7tVI-1" value="(1, 1)" style="edgeStyle=none;curved=1;rounded=0;orthogonalLoop=1;jettySize=auto;html=1;exitX=1;exitY=0.5;exitDx=0;exitDy=0;entryX=0;entryY=0.5;entryDx=0;entryDy=0;endArrow=classic;startSize=8;endSize=9;sourcePerimeterSpacing=8;targetPerimeterSpacing=8;endFill=1;" parent="Rih6IUOuQE-28_pNxOKQ-1" source="PRSKFAlq4l8zL4JBxz10-6" target="PRSKFAlq4l8zL4JBxz10-20" edge="1">
          <mxGeometry relative="1" as="geometry" />
        </mxCell>
        <mxCell id="PRSKFAlq4l8zL4JBxz10-6" value="Relations tag" style="rounded=0;whiteSpace=wrap;html=1;hachureGap=4;pointerEvents=0;fillColor=#f0a30a;strokeColor=#BD7000;fontColor=#000000;" parent="Rih6IUOuQE-28_pNxOKQ-1" vertex="1">
          <mxGeometry x="-460" y="690" width="120" height="60" as="geometry" />
        </mxCell>
        <mxCell id="LOXCWFG5L1Vneurc7tVI-16" value="(1,1)" style="edgeStyle=none;curved=1;rounded=0;orthogonalLoop=1;jettySize=auto;html=1;exitX=1;exitY=0.5;exitDx=0;exitDy=0;entryX=0;entryY=0.5;entryDx=0;entryDy=0;endArrow=none;endFill=0;startSize=8;endSize=8;sourcePerimeterSpacing=8;targetPerimeterSpacing=8;" parent="Rih6IUOuQE-28_pNxOKQ-1" source="PRSKFAlq4l8zL4JBxz10-7" target="LOXCWFG5L1Vneurc7tVI-14" edge="1">
          <mxGeometry relative="1" as="geometry" />
        </mxCell>
        <mxCell id="PRSKFAlq4l8zL4JBxz10-7" value="Node tag" style="rounded=0;whiteSpace=wrap;html=1;hachureGap=4;pointerEvents=0;fillColor=#f0a30a;strokeColor=#BD7000;fontColor=#000000;" parent="Rih6IUOuQE-28_pNxOKQ-1" vertex="1">
          <mxGeometry x="-740" y="80" width="120" height="60" as="geometry" />
        </mxCell>
        <mxCell id="PRSKFAlq4l8zL4JBxz10-8" value="Way tag" style="rounded=0;whiteSpace=wrap;html=1;hachureGap=4;pointerEvents=0;fillColor=#f0a30a;strokeColor=#BD7000;fontColor=#000000;" parent="Rih6IUOuQE-28_pNxOKQ-1" vertex="1">
          <mxGeometry x="-70" y="-390" width="120" height="60" as="geometry" />
        </mxCell>
        <mxCell id="PRSKFAlq4l8zL4JBxz10-9" value="" style="group" parent="Rih6IUOuQE-28_pNxOKQ-1" vertex="1" connectable="0">
          <mxGeometry x="-50" y="80" width="80" height="60" as="geometry" />
        </mxCell>
        <mxCell id="PRSKFAlq4l8zL4JBxz10-10" value="member id" style="rhombus;whiteSpace=wrap;html=1;hachureGap=4;pointerEvents=0;fillColor=#6d8764;strokeColor=#3A5431;fontColor=#ffffff;rounded=0;sketch=0;perimeterSpacing=0;shadow=0;" parent="PRSKFAlq4l8zL4JBxz10-9" vertex="1">
          <mxGeometry width="80" height="60" as="geometry" />
        </mxCell>
        <mxCell id="PRSKFAlq4l8zL4JBxz10-11" value="" style="rhombus;whiteSpace=wrap;html=1;hachureGap=4;pointerEvents=0;fillColor=none;strokeColor=#3A5431;fontColor=#ffffff;" parent="PRSKFAlq4l8zL4JBxz10-9" vertex="1">
          <mxGeometry x="7.5" y="7.5" width="65" height="45" as="geometry" />
        </mxCell>
        <mxCell id="PRSKFAlq4l8zL4JBxz10-12" value="(1, 1)" style="edgeStyle=orthogonalEdgeStyle;rounded=0;orthogonalLoop=1;jettySize=auto;html=1;exitX=1;exitY=0.5;exitDx=0;exitDy=0;entryX=0;entryY=0.5;entryDx=0;entryDy=0;dashed=1;" parent="Rih6IUOuQE-28_pNxOKQ-1" source="PRSKFAlq4l8zL4JBxz10-11" target="XfI4zxfOpPHzSRZgf_Fb-0" edge="1">
          <mxGeometry relative="1" as="geometry" />
        </mxCell>
        <mxCell id="PRSKFAlq4l8zL4JBxz10-13" value="(1, 1)" style="edgeStyle=orthogonalEdgeStyle;rounded=0;orthogonalLoop=1;jettySize=auto;html=1;exitX=0;exitY=0.5;exitDx=0;exitDy=0;entryX=1;entryY=0.5;entryDx=0;entryDy=0;dashed=1;" parent="Rih6IUOuQE-28_pNxOKQ-1" source="PRSKFAlq4l8zL4JBxz10-10" target="PRSKFAlq4l8zL4JBxz10-1" edge="1">
          <mxGeometry relative="1" as="geometry" />
        </mxCell>
        <mxCell id="PRSKFAlq4l8zL4JBxz10-14" value="(1, 1)" style="edgeStyle=orthogonalEdgeStyle;rounded=0;orthogonalLoop=1;jettySize=auto;html=1;exitX=0.5;exitY=0;exitDx=0;exitDy=0;dashed=1;" parent="Rih6IUOuQE-28_pNxOKQ-1" source="PRSKFAlq4l8zL4JBxz10-11" edge="1">
          <mxGeometry relative="1" as="geometry">
            <mxPoint x="-10" y="-130" as="targetPoint" />
          </mxGeometry>
        </mxCell>
        <mxCell id="LOXCWFG5L1Vneurc7tVI-41" value="(1,1)" style="edgeStyle=none;curved=1;rounded=0;orthogonalLoop=1;jettySize=auto;html=1;exitX=0.5;exitY=1;exitDx=0;exitDy=0;entryX=0.5;entryY=0;entryDx=0;entryDy=0;endArrow=none;endFill=0;startSize=8;endSize=8;sourcePerimeterSpacing=8;targetPerimeterSpacing=8;" parent="Rih6IUOuQE-28_pNxOKQ-1" source="PRSKFAlq4l8zL4JBxz10-16" target="LOXCWFG5L1Vneurc7tVI-38" edge="1">
          <mxGeometry relative="1" as="geometry" />
        </mxCell>
        <mxCell id="LOXCWFG5L1Vneurc7tVI-45" value="(1,1)" style="edgeStyle=none;curved=1;rounded=0;orthogonalLoop=1;jettySize=auto;html=1;exitX=1;exitY=0.5;exitDx=0;exitDy=0;endArrow=none;endFill=0;startSize=8;endSize=8;sourcePerimeterSpacing=8;targetPerimeterSpacing=8;" parent="Rih6IUOuQE-28_pNxOKQ-1" source="PRSKFAlq4l8zL4JBxz10-16" edge="1">
          <mxGeometry relative="1" as="geometry">
            <mxPoint x="-210" y="-160" as="targetPoint" />
          </mxGeometry>
        </mxCell>
        <mxCell id="PRSKFAlq4l8zL4JBxz10-16" value="Way nodes" style="rounded=0;whiteSpace=wrap;html=1;hachureGap=4;pointerEvents=0;fillColor=#f0a30a;strokeColor=#BD7000;fontColor=#000000;" parent="Rih6IUOuQE-28_pNxOKQ-1" vertex="1">
          <mxGeometry x="-390" y="-190" width="120" height="60" as="geometry" />
        </mxCell>
        <mxCell id="PRSKFAlq4l8zL4JBxz10-18" value="" style="group" parent="Rih6IUOuQE-28_pNxOKQ-1" vertex="1" connectable="0">
          <mxGeometry x="-250" y="690" width="80" height="60" as="geometry" />
        </mxCell>
        <mxCell id="PRSKFAlq4l8zL4JBxz10-19" value="refer to" style="rhombus;whiteSpace=wrap;html=1;hachureGap=4;pointerEvents=0;fillColor=#6d8764;strokeColor=#3A5431;fontColor=#ffffff;rounded=0;sketch=0;perimeterSpacing=0;shadow=0;" parent="PRSKFAlq4l8zL4JBxz10-18" vertex="1">
          <mxGeometry width="80" height="60" as="geometry" />
        </mxCell>
        <mxCell id="PRSKFAlq4l8zL4JBxz10-20" value="" style="rhombus;whiteSpace=wrap;html=1;hachureGap=4;pointerEvents=0;fillColor=none;strokeColor=#3A5431;fontColor=#ffffff;" parent="PRSKFAlq4l8zL4JBxz10-18" vertex="1">
          <mxGeometry x="7.5" y="7.5" width="65" height="45" as="geometry" />
        </mxCell>
        <mxCell id="LOXCWFG5L1Vneurc7tVI-0" value="(0, *)" style="edgeStyle=none;curved=1;rounded=0;orthogonalLoop=1;jettySize=auto;html=1;exitX=1;exitY=0.5;exitDx=0;exitDy=0;entryX=0;entryY=0.5;entryDx=0;entryDy=0;endArrow=classic;startSize=8;endSize=8;sourcePerimeterSpacing=8;targetPerimeterSpacing=8;endFill=1;" parent="Rih6IUOuQE-28_pNxOKQ-1" source="PRSKFAlq4l8zL4JBxz10-20" target="PRSKFAlq4l8zL4JBxz10-4" edge="1">
          <mxGeometry relative="1" as="geometry" />
        </mxCell>
        <mxCell id="LOXCWFG5L1Vneurc7tVI-3" value="sequence id" style="ellipse;whiteSpace=wrap;html=1;hachureGap=4;pointerEvents=0;fillColor=#e3c800;strokeColor=#B09500;fontColor=#000000;" parent="Rih6IUOuQE-28_pNxOKQ-1" vertex="1">
          <mxGeometry x="110" y="370" width="90" height="50" as="geometry" />
        </mxCell>
        <mxCell id="LOXCWFG5L1Vneurc7tVI-5" value="member role" style="ellipse;whiteSpace=wrap;html=1;hachureGap=4;pointerEvents=0;fillColor=#e3c800;strokeColor=#B09500;fontColor=#000000;" parent="Rih6IUOuQE-28_pNxOKQ-1" vertex="1">
          <mxGeometry x="110" y="450" width="90" height="50" as="geometry" />
        </mxCell>
        <mxCell id="LOXCWFG5L1Vneurc7tVI-8" value="" style="group" parent="Rih6IUOuQE-28_pNxOKQ-1" vertex="1" connectable="0">
          <mxGeometry x="-50" y="550" width="80" height="60" as="geometry" />
        </mxCell>
        <mxCell id="LOXCWFG5L1Vneurc7tVI-9" value="refer to" style="rhombus;whiteSpace=wrap;html=1;hachureGap=4;pointerEvents=0;fillColor=#6d8764;strokeColor=#3A5431;fontColor=#ffffff;rounded=0;sketch=0;perimeterSpacing=0;shadow=0;" parent="LOXCWFG5L1Vneurc7tVI-8" vertex="1">
          <mxGeometry width="80" height="60" as="geometry" />
        </mxCell>
        <mxCell id="LOXCWFG5L1Vneurc7tVI-10" value="" style="rhombus;whiteSpace=wrap;html=1;hachureGap=4;pointerEvents=0;fillColor=none;strokeColor=#3A5431;fontColor=#ffffff;" parent="LOXCWFG5L1Vneurc7tVI-8" vertex="1">
          <mxGeometry x="7.5" y="7.5" width="65" height="45" as="geometry" />
        </mxCell>
        <mxCell id="LOXCWFG5L1Vneurc7tVI-11" value="(0, *)" style="edgeStyle=none;curved=1;rounded=0;orthogonalLoop=1;jettySize=auto;html=1;exitX=0.5;exitY=1;exitDx=0;exitDy=0;entryX=0.5;entryY=0;entryDx=0;entryDy=0;endArrow=classic;endFill=1;startSize=8;endSize=8;sourcePerimeterSpacing=8;targetPerimeterSpacing=8;" parent="Rih6IUOuQE-28_pNxOKQ-1" source="LOXCWFG5L1Vneurc7tVI-9" target="PRSKFAlq4l8zL4JBxz10-4" edge="1">
          <mxGeometry relative="1" as="geometry" />
        </mxCell>
        <mxCell id="LOXCWFG5L1Vneurc7tVI-12" value="" style="group" parent="Rih6IUOuQE-28_pNxOKQ-1" vertex="1" connectable="0">
          <mxGeometry x="-540" y="80" width="80" height="60" as="geometry" />
        </mxCell>
        <mxCell id="LOXCWFG5L1Vneurc7tVI-13" value="refer to" style="rhombus;whiteSpace=wrap;html=1;hachureGap=4;pointerEvents=0;fillColor=#6d8764;strokeColor=#3A5431;fontColor=#ffffff;rounded=0;sketch=0;perimeterSpacing=0;shadow=0;" parent="LOXCWFG5L1Vneurc7tVI-12" vertex="1">
          <mxGeometry width="80" height="60" as="geometry" />
        </mxCell>
        <mxCell id="LOXCWFG5L1Vneurc7tVI-14" value="" style="rhombus;whiteSpace=wrap;html=1;hachureGap=4;pointerEvents=0;fillColor=none;strokeColor=#3A5431;fontColor=#ffffff;" parent="LOXCWFG5L1Vneurc7tVI-12" vertex="1">
          <mxGeometry x="7.5" y="7.5" width="65" height="45" as="geometry" />
        </mxCell>
        <mxCell id="LOXCWFG5L1Vneurc7tVI-15" value="(0, *)" style="edgeStyle=none;curved=1;rounded=0;orthogonalLoop=1;jettySize=auto;html=1;exitX=1;exitY=0.5;exitDx=0;exitDy=0;entryX=0;entryY=0.5;entryDx=0;entryDy=0;endArrow=classic;endFill=1;startSize=8;endSize=8;sourcePerimeterSpacing=8;targetPerimeterSpacing=8;" parent="Rih6IUOuQE-28_pNxOKQ-1" source="LOXCWFG5L1Vneurc7tVI-14" target="PRSKFAlq4l8zL4JBxz10-1" edge="1">
          <mxGeometry relative="1" as="geometry" />
        </mxCell>
        <mxCell id="LOXCWFG5L1Vneurc7tVI-20" style="edgeStyle=none;curved=1;rounded=0;orthogonalLoop=1;jettySize=auto;html=1;exitX=1;exitY=0.5;exitDx=0;exitDy=0;entryX=0;entryY=0.25;entryDx=0;entryDy=0;endArrow=none;endFill=0;startSize=8;endSize=8;sourcePerimeterSpacing=8;targetPerimeterSpacing=8;" parent="Rih6IUOuQE-28_pNxOKQ-1" source="LOXCWFG5L1Vneurc7tVI-17" target="PRSKFAlq4l8zL4JBxz10-6" edge="1">
          <mxGeometry relative="1" as="geometry" />
        </mxCell>
        <mxCell id="LOXCWFG5L1Vneurc7tVI-17" value="key" style="ellipse;whiteSpace=wrap;html=1;hachureGap=4;pointerEvents=0;fillColor=#e3c800;strokeColor=#B09500;fontColor=#000000;" parent="Rih6IUOuQE-28_pNxOKQ-1" vertex="1">
          <mxGeometry x="-610" y="660" width="90" height="50" as="geometry" />
        </mxCell>
        <mxCell id="LOXCWFG5L1Vneurc7tVI-19" style="edgeStyle=none;curved=1;rounded=0;orthogonalLoop=1;jettySize=auto;html=1;exitX=1;exitY=0.5;exitDx=0;exitDy=0;entryX=0;entryY=0.75;entryDx=0;entryDy=0;endArrow=none;endFill=0;startSize=8;endSize=8;sourcePerimeterSpacing=8;targetPerimeterSpacing=8;" parent="Rih6IUOuQE-28_pNxOKQ-1" source="LOXCWFG5L1Vneurc7tVI-18" target="PRSKFAlq4l8zL4JBxz10-6" edge="1">
          <mxGeometry relative="1" as="geometry" />
        </mxCell>
        <mxCell id="LOXCWFG5L1Vneurc7tVI-18" value="value" style="ellipse;whiteSpace=wrap;html=1;hachureGap=4;pointerEvents=0;fillColor=#e3c800;strokeColor=#B09500;fontColor=#000000;" parent="Rih6IUOuQE-28_pNxOKQ-1" vertex="1">
          <mxGeometry x="-610" y="730" width="90" height="50" as="geometry" />
        </mxCell>
        <mxCell id="LOXCWFG5L1Vneurc7tVI-21" style="edgeStyle=none;curved=1;rounded=0;orthogonalLoop=1;jettySize=auto;html=1;exitX=1;exitY=0.5;exitDx=0;exitDy=0;entryX=0;entryY=0.25;entryDx=0;entryDy=0;endArrow=none;endFill=0;startSize=8;endSize=8;sourcePerimeterSpacing=8;targetPerimeterSpacing=8;" parent="Rih6IUOuQE-28_pNxOKQ-1" source="LOXCWFG5L1Vneurc7tVI-22" edge="1">
          <mxGeometry relative="1" as="geometry">
            <mxPoint x="-740" y="95" as="targetPoint" />
          </mxGeometry>
        </mxCell>
        <mxCell id="LOXCWFG5L1Vneurc7tVI-22" value="key" style="ellipse;whiteSpace=wrap;html=1;hachureGap=4;pointerEvents=0;fillColor=#e3c800;strokeColor=#B09500;fontColor=#000000;" parent="Rih6IUOuQE-28_pNxOKQ-1" vertex="1">
          <mxGeometry x="-890" y="50" width="90" height="50" as="geometry" />
        </mxCell>
        <mxCell id="LOXCWFG5L1Vneurc7tVI-23" style="edgeStyle=none;curved=1;rounded=0;orthogonalLoop=1;jettySize=auto;html=1;exitX=1;exitY=0.5;exitDx=0;exitDy=0;entryX=0;entryY=0.75;entryDx=0;entryDy=0;endArrow=none;endFill=0;startSize=8;endSize=8;sourcePerimeterSpacing=8;targetPerimeterSpacing=8;" parent="Rih6IUOuQE-28_pNxOKQ-1" source="LOXCWFG5L1Vneurc7tVI-24" edge="1">
          <mxGeometry relative="1" as="geometry">
            <mxPoint x="-740" y="125" as="targetPoint" />
          </mxGeometry>
        </mxCell>
        <mxCell id="LOXCWFG5L1Vneurc7tVI-24" value="value" style="ellipse;whiteSpace=wrap;html=1;hachureGap=4;pointerEvents=0;fillColor=#e3c800;strokeColor=#B09500;fontColor=#000000;" parent="Rih6IUOuQE-28_pNxOKQ-1" vertex="1">
          <mxGeometry x="-890" y="120" width="90" height="50" as="geometry" />
        </mxCell>
        <mxCell id="LOXCWFG5L1Vneurc7tVI-25" style="edgeStyle=none;curved=1;rounded=0;orthogonalLoop=1;jettySize=auto;html=1;exitX=1;exitY=0.5;exitDx=0;exitDy=0;entryX=0;entryY=0.25;entryDx=0;entryDy=0;endArrow=none;endFill=0;startSize=8;endSize=8;sourcePerimeterSpacing=8;targetPerimeterSpacing=8;" parent="Rih6IUOuQE-28_pNxOKQ-1" source="LOXCWFG5L1Vneurc7tVI-26" edge="1">
          <mxGeometry relative="1" as="geometry">
            <mxPoint x="-70" y="-375" as="targetPoint" />
          </mxGeometry>
        </mxCell>
        <mxCell id="LOXCWFG5L1Vneurc7tVI-26" value="key" style="ellipse;whiteSpace=wrap;html=1;hachureGap=4;pointerEvents=0;fillColor=#e3c800;strokeColor=#B09500;fontColor=#000000;" parent="Rih6IUOuQE-28_pNxOKQ-1" vertex="1">
          <mxGeometry x="-220" y="-420" width="90" height="50" as="geometry" />
        </mxCell>
        <mxCell id="LOXCWFG5L1Vneurc7tVI-27" style="edgeStyle=none;curved=1;rounded=0;orthogonalLoop=1;jettySize=auto;html=1;exitX=1;exitY=0.5;exitDx=0;exitDy=0;entryX=0;entryY=0.75;entryDx=0;entryDy=0;endArrow=none;endFill=0;startSize=8;endSize=8;sourcePerimeterSpacing=8;targetPerimeterSpacing=8;" parent="Rih6IUOuQE-28_pNxOKQ-1" source="LOXCWFG5L1Vneurc7tVI-28" edge="1">
          <mxGeometry relative="1" as="geometry">
            <mxPoint x="-70" y="-345" as="targetPoint" />
          </mxGeometry>
        </mxCell>
        <mxCell id="LOXCWFG5L1Vneurc7tVI-28" value="value" style="ellipse;whiteSpace=wrap;html=1;hachureGap=4;pointerEvents=0;fillColor=#e3c800;strokeColor=#B09500;fontColor=#000000;" parent="Rih6IUOuQE-28_pNxOKQ-1" vertex="1">
          <mxGeometry x="-220" y="-350" width="90" height="50" as="geometry" />
        </mxCell>
        <mxCell id="LOXCWFG5L1Vneurc7tVI-29" style="edgeStyle=none;curved=1;rounded=0;orthogonalLoop=1;jettySize=auto;html=1;exitX=1;exitY=0.5;exitDx=0;exitDy=0;entryX=0;entryY=0.25;entryDx=0;entryDy=0;endArrow=none;endFill=0;startSize=8;endSize=8;sourcePerimeterSpacing=8;targetPerimeterSpacing=8;" parent="Rih6IUOuQE-28_pNxOKQ-1" source="LOXCWFG5L1Vneurc7tVI-30" edge="1">
          <mxGeometry relative="1" as="geometry">
            <mxPoint x="-390" y="-175" as="targetPoint" />
          </mxGeometry>
        </mxCell>
        <mxCell id="LOXCWFG5L1Vneurc7tVI-30" value="sequence id" style="ellipse;whiteSpace=wrap;html=1;hachureGap=4;pointerEvents=0;fillColor=#e3c800;strokeColor=#B09500;fontColor=#000000;" parent="Rih6IUOuQE-28_pNxOKQ-1" vertex="1">
          <mxGeometry x="-540" y="-220" width="90" height="50" as="geometry" />
        </mxCell>
        <mxCell id="LOXCWFG5L1Vneurc7tVI-37" value="" style="group" parent="Rih6IUOuQE-28_pNxOKQ-1" vertex="1" connectable="0">
          <mxGeometry x="-370" y="-50" width="80" height="60" as="geometry" />
        </mxCell>
        <mxCell id="LOXCWFG5L1Vneurc7tVI-38" value="owns" style="rhombus;whiteSpace=wrap;html=1;hachureGap=4;pointerEvents=0;fillColor=#6d8764;strokeColor=#3A5431;fontColor=#ffffff;rounded=0;sketch=0;perimeterSpacing=0;shadow=0;" parent="LOXCWFG5L1Vneurc7tVI-37" vertex="1">
          <mxGeometry width="80" height="60" as="geometry" />
        </mxCell>
        <mxCell id="LOXCWFG5L1Vneurc7tVI-39" value="" style="rhombus;whiteSpace=wrap;html=1;hachureGap=4;pointerEvents=0;fillColor=none;strokeColor=#3A5431;fontColor=#ffffff;" parent="LOXCWFG5L1Vneurc7tVI-37" vertex="1">
          <mxGeometry x="7.5" y="7.5" width="65" height="45" as="geometry" />
        </mxCell>
        <mxCell id="LOXCWFG5L1Vneurc7tVI-40" value="(0,*)" style="edgeStyle=none;curved=1;rounded=0;orthogonalLoop=1;jettySize=auto;html=1;exitX=0.5;exitY=1;exitDx=0;exitDy=0;entryX=0.5;entryY=0;entryDx=0;entryDy=0;endArrow=classic;endFill=1;startSize=8;endSize=8;sourcePerimeterSpacing=8;targetPerimeterSpacing=8;" parent="Rih6IUOuQE-28_pNxOKQ-1" source="LOXCWFG5L1Vneurc7tVI-38" target="PRSKFAlq4l8zL4JBxz10-1" edge="1">
          <mxGeometry relative="1" as="geometry" />
        </mxCell>
        <mxCell id="LOXCWFG5L1Vneurc7tVI-42" value="" style="group" parent="Rih6IUOuQE-28_pNxOKQ-1" vertex="1" connectable="0">
          <mxGeometry x="-210" y="-190" width="80" height="60" as="geometry" />
        </mxCell>
        <mxCell id="LOXCWFG5L1Vneurc7tVI-43" value="owner" style="rhombus;whiteSpace=wrap;html=1;hachureGap=4;pointerEvents=0;fillColor=#6d8764;strokeColor=#3A5431;fontColor=#ffffff;rounded=0;sketch=0;perimeterSpacing=0;shadow=0;" parent="LOXCWFG5L1Vneurc7tVI-42" vertex="1">
          <mxGeometry width="80" height="60" as="geometry" />
        </mxCell>
        <mxCell id="LOXCWFG5L1Vneurc7tVI-44" value="" style="rhombus;whiteSpace=wrap;html=1;hachureGap=4;pointerEvents=0;fillColor=none;strokeColor=#3A5431;fontColor=#ffffff;" parent="LOXCWFG5L1Vneurc7tVI-42" vertex="1">
          <mxGeometry x="7.5" y="7.5" width="65" height="45" as="geometry" />
        </mxCell>
        <mxCell id="LOXCWFG5L1Vneurc7tVI-46" value="(1,*)" style="edgeStyle=none;curved=1;rounded=0;orthogonalLoop=1;jettySize=auto;html=1;exitX=1;exitY=0.5;exitDx=0;exitDy=0;entryX=0;entryY=0.5;entryDx=0;entryDy=0;endArrow=classic;endFill=1;startSize=8;endSize=8;sourcePerimeterSpacing=8;targetPerimeterSpacing=8;" parent="Rih6IUOuQE-28_pNxOKQ-1" source="LOXCWFG5L1Vneurc7tVI-44" target="PRSKFAlq4l8zL4JBxz10-2" edge="1">
          <mxGeometry relative="1" as="geometry" />
        </mxCell>
        <mxCell id="LOXCWFG5L1Vneurc7tVI-47" value="latitude" style="ellipse;whiteSpace=wrap;html=1;hachureGap=4;pointerEvents=0;fillColor=#e3c800;strokeColor=#B09500;fontColor=#000000;" parent="Rih6IUOuQE-28_pNxOKQ-1" vertex="1">
          <mxGeometry x="-480" y="190" width="90" height="50" as="geometry" />
        </mxCell>
        <mxCell id="LOXCWFG5L1Vneurc7tVI-48" value="longitude" style="ellipse;whiteSpace=wrap;html=1;hachureGap=4;pointerEvents=0;fillColor=#e3c800;strokeColor=#B09500;fontColor=#000000;" parent="Rih6IUOuQE-28_pNxOKQ-1" vertex="1">
          <mxGeometry x="-270" y="190" width="90" height="50" as="geometry" />
        </mxCell>
        <mxCell id="LOXCWFG5L1Vneurc7tVI-49" value="tile" style="ellipse;whiteSpace=wrap;html=1;hachureGap=4;pointerEvents=0;fillColor=#e3c800;strokeColor=#B09500;fontColor=#000000;" parent="Rih6IUOuQE-28_pNxOKQ-1" vertex="1">
          <mxGeometry x="-375" y="200" width="90" height="50" as="geometry" />
        </mxCell>
        <mxCell id="LOXCWFG5L1Vneurc7tVI-67" value="(0,*)" style="edgeStyle=none;curved=1;rounded=0;orthogonalLoop=1;jettySize=auto;html=1;exitX=1;exitY=0.5;exitDx=0;exitDy=0;entryX=0;entryY=0.5;entryDx=0;entryDy=0;endArrow=none;endFill=0;startSize=8;endSize=8;sourcePerimeterSpacing=8;targetPerimeterSpacing=8;startArrow=none;startFill=0;" parent="Rih6IUOuQE-28_pNxOKQ-1" target="PRSKFAlq4l8zL4JBxz10-3" edge="1">
          <mxGeometry relative="1" as="geometry">
            <mxPoint x="672.5" y="110" as="sourcePoint" />
          </mxGeometry>
        </mxCell>
        <mxCell id="LOXCWFG5L1Vneurc7tVI-69" value="(1,1)" style="edgeStyle=none;curved=1;rounded=0;orthogonalLoop=1;jettySize=auto;html=1;exitX=0.5;exitY=0;exitDx=0;exitDy=0;entryX=0.5;entryY=1;entryDx=0;entryDy=0;endArrow=classic;endFill=1;startSize=8;endSize=8;sourcePerimeterSpacing=8;targetPerimeterSpacing=8;" parent="Rih6IUOuQE-28_pNxOKQ-1" target="PRSKFAlq4l8zL4JBxz10-3" edge="1">
          <mxGeometry relative="1" as="geometry">
            <mxPoint x="886" y="240" as="sourcePoint" />
          </mxGeometry>
        </mxCell>
        <mxCell id="LOXCWFG5L1Vneurc7tVI-70" value="" style="group" parent="Rih6IUOuQE-28_pNxOKQ-1" vertex="1" connectable="0">
          <mxGeometry x="-50" y="-290" width="80" height="60" as="geometry" />
        </mxCell>
        <mxCell id="LOXCWFG5L1Vneurc7tVI-71" value="owner" style="rhombus;whiteSpace=wrap;html=1;hachureGap=4;pointerEvents=0;fillColor=#6d8764;strokeColor=#3A5431;fontColor=#ffffff;rounded=0;sketch=0;perimeterSpacing=0;shadow=0;" parent="LOXCWFG5L1Vneurc7tVI-70" vertex="1">
          <mxGeometry width="80" height="60" as="geometry" />
        </mxCell>
        <mxCell id="LOXCWFG5L1Vneurc7tVI-72" value="" style="rhombus;whiteSpace=wrap;html=1;hachureGap=4;pointerEvents=0;fillColor=none;strokeColor=#3A5431;fontColor=#ffffff;" parent="LOXCWFG5L1Vneurc7tVI-70" vertex="1">
          <mxGeometry x="7.5" y="7.5" width="65" height="45" as="geometry" />
        </mxCell>
        <mxCell id="LOXCWFG5L1Vneurc7tVI-73" value="(1,*)" style="edgeStyle=none;curved=1;rounded=0;orthogonalLoop=1;jettySize=auto;html=1;exitX=0.5;exitY=1;exitDx=0;exitDy=0;entryX=0.5;entryY=0;entryDx=0;entryDy=0;endArrow=classic;endFill=1;startSize=8;endSize=8;sourcePerimeterSpacing=8;targetPerimeterSpacing=8;" parent="Rih6IUOuQE-28_pNxOKQ-1" source="LOXCWFG5L1Vneurc7tVI-71" target="PRSKFAlq4l8zL4JBxz10-2" edge="1">
          <mxGeometry relative="1" as="geometry">
            <mxPoint x="-127.5" y="-150" as="sourcePoint" />
            <mxPoint x="-60" y="-150" as="targetPoint" />
          </mxGeometry>
        </mxCell>
        <mxCell id="LOXCWFG5L1Vneurc7tVI-74" value="(1,1)" style="edgeStyle=none;curved=1;rounded=0;orthogonalLoop=1;jettySize=auto;html=1;exitX=0.5;exitY=1;exitDx=0;exitDy=0;entryX=0.5;entryY=0;entryDx=0;entryDy=0;endArrow=none;endFill=0;startSize=8;endSize=8;sourcePerimeterSpacing=8;targetPerimeterSpacing=8;" parent="Rih6IUOuQE-28_pNxOKQ-1" source="PRSKFAlq4l8zL4JBxz10-8" target="LOXCWFG5L1Vneurc7tVI-71" edge="1">
          <mxGeometry relative="1" as="geometry">
            <mxPoint x="110" y="-310" as="sourcePoint" />
            <mxPoint x="177.5" y="-310" as="targetPoint" />
          </mxGeometry>
        </mxCell>
        <mxCell id="LOXCWFG5L1Vneurc7tVI-75" value="" style="group" parent="Rih6IUOuQE-28_pNxOKQ-1" vertex="1" connectable="0">
          <mxGeometry x="600" y="80" width="80" height="60" as="geometry" />
        </mxCell>
        <mxCell id="LOXCWFG5L1Vneurc7tVI-76" value="equipped for" style="rhombus;whiteSpace=wrap;html=1;hachureGap=4;pointerEvents=0;fillColor=#6d8764;strokeColor=#3A5431;fontColor=#ffffff;rounded=0;sketch=0;perimeterSpacing=0;shadow=0;" parent="LOXCWFG5L1Vneurc7tVI-75" vertex="1">
          <mxGeometry width="80" height="60" as="geometry" />
        </mxCell>
        <mxCell id="LOXCWFG5L1Vneurc7tVI-77" value="" style="rhombus;whiteSpace=wrap;html=1;hachureGap=4;pointerEvents=0;fillColor=none;strokeColor=#3A5431;fontColor=#ffffff;" parent="LOXCWFG5L1Vneurc7tVI-75" vertex="1">
          <mxGeometry x="7.5" y="7.5" width="65" height="45" as="geometry" />
        </mxCell>
        <mxCell id="LOXCWFG5L1Vneurc7tVI-78" value="" style="group" parent="Rih6IUOuQE-28_pNxOKQ-1" vertex="1" connectable="0">
          <mxGeometry x="846" y="240" width="80" height="60" as="geometry" />
        </mxCell>
        <mxCell id="LOXCWFG5L1Vneurc7tVI-79" value="belongs to" style="rhombus;whiteSpace=wrap;html=1;hachureGap=4;pointerEvents=0;fillColor=#6d8764;strokeColor=#3A5431;fontColor=#ffffff;rounded=0;sketch=0;perimeterSpacing=0;shadow=0;" parent="LOXCWFG5L1Vneurc7tVI-78" vertex="1">
          <mxGeometry width="80" height="60" as="geometry" />
        </mxCell>
        <mxCell id="LOXCWFG5L1Vneurc7tVI-80" value="" style="rhombus;whiteSpace=wrap;html=1;hachureGap=4;pointerEvents=0;fillColor=none;strokeColor=#3A5431;fontColor=#ffffff;" parent="LOXCWFG5L1Vneurc7tVI-78" vertex="1">
          <mxGeometry x="7.5" y="7.5" width="65" height="45" as="geometry" />
        </mxCell>
        <mxCell id="LOXCWFG5L1Vneurc7tVI-83" value="(1,1)" style="edgeStyle=none;curved=1;rounded=0;orthogonalLoop=1;jettySize=auto;html=1;exitX=0;exitY=0.5;exitDx=0;exitDy=0;entryX=1;entryY=0.5;entryDx=0;entryDy=0;fontColor=#000000;startArrow=none;startFill=0;endArrow=classic;endFill=1;startSize=8;endSize=8;sourcePerimeterSpacing=8;targetPerimeterSpacing=8;" parent="Rih6IUOuQE-28_pNxOKQ-1" source="LOXCWFG5L1Vneurc7tVI-81" target="PRSKFAlq4l8zL4JBxz10-4" edge="1">
          <mxGeometry relative="1" as="geometry" />
        </mxCell>
        <mxCell id="LOXCWFG5L1Vneurc7tVI-81" value="path" style="rhombus;whiteSpace=wrap;html=1;hachureGap=4;pointerEvents=0;fillColor=#6d8764;strokeColor=#3A5431;fontColor=#ffffff;" parent="Rih6IUOuQE-28_pNxOKQ-1" vertex="1">
          <mxGeometry x="400" y="690" width="80" height="60" as="geometry" />
        </mxCell>
        <mxCell id="lKTr2YxRmawlyok761_Q-2" style="edgeStyle=orthogonalEdgeStyle;rounded=0;orthogonalLoop=1;jettySize=auto;html=1;exitX=0.5;exitY=0;exitDx=0;exitDy=0;endArrow=none;endFill=0;" parent="Rih6IUOuQE-28_pNxOKQ-1" source="lKTr2YxRmawlyok761_Q-1" target="PRSKFAlq4l8zL4JBxz10-4" edge="1">
          <mxGeometry relative="1" as="geometry" />
        </mxCell>
        <mxCell id="lKTr2YxRmawlyok761_Q-1" value="name" style="ellipse;whiteSpace=wrap;html=1;hachureGap=4;pointerEvents=0;fillColor=#e3c800;strokeColor=#B09500;fontColor=#000000;" parent="Rih6IUOuQE-28_pNxOKQ-1" vertex="1">
          <mxGeometry x="-55" y="810" width="90" height="50" as="geometry" />
        </mxCell>
        <mxCell id="lKTr2YxRmawlyok761_Q-4" style="edgeStyle=orthogonalEdgeStyle;rounded=0;orthogonalLoop=1;jettySize=auto;html=1;exitX=0.5;exitY=1;exitDx=0;exitDy=0;endArrow=none;endFill=0;" parent="Rih6IUOuQE-28_pNxOKQ-1" source="lKTr2YxRmawlyok761_Q-3" target="XfI4zxfOpPHzSRZgf_Fb-0" edge="1">
          <mxGeometry relative="1" as="geometry" />
        </mxCell>
        <mxCell id="lKTr2YxRmawlyok761_Q-3" value="description" style="ellipse;whiteSpace=wrap;html=1;hachureGap=4;pointerEvents=0;fillColor=#e3c800;strokeColor=#B09500;fontColor=#000000;" parent="Rih6IUOuQE-28_pNxOKQ-1" vertex="1">
          <mxGeometry x="345" y="-90" width="90" height="50" as="geometry" />
        </mxCell>
        <mxCell id="lKTr2YxRmawlyok761_Q-7" style="edgeStyle=orthogonalEdgeStyle;rounded=0;orthogonalLoop=1;jettySize=auto;html=1;exitX=0.5;exitY=0;exitDx=0;exitDy=0;entryX=0.5;entryY=1;entryDx=0;entryDy=0;endArrow=none;endFill=0;" parent="Rih6IUOuQE-28_pNxOKQ-1" source="lKTr2YxRmawlyok761_Q-6" target="v1jYdd2YxKOqB0_LmH17-0" edge="1">
          <mxGeometry relative="1" as="geometry" />
        </mxCell>
        <mxCell id="lKTr2YxRmawlyok761_Q-6" value="name" style="ellipse;whiteSpace=wrap;html=1;hachureGap=4;pointerEvents=0;fillColor=#e3c800;strokeColor=#B09500;fontColor=#000000;" parent="Rih6IUOuQE-28_pNxOKQ-1" vertex="1">
          <mxGeometry x="842" y="790" width="90" height="50" as="geometry" />
        </mxCell>
        <mxCell id="lKTr2YxRmawlyok761_Q-11" style="rounded=0;orthogonalLoop=1;jettySize=auto;html=1;exitX=0.5;exitY=0;exitDx=0;exitDy=0;entryX=0.25;entryY=1;entryDx=0;entryDy=0;endArrow=none;endFill=0;" parent="Rih6IUOuQE-28_pNxOKQ-1" source="lKTr2YxRmawlyok761_Q-9" target="XfI4zxfOpPHzSRZgf_Fb-0" edge="1">
          <mxGeometry relative="1" as="geometry" />
        </mxCell>
        <mxCell id="lKTr2YxRmawlyok761_Q-9" value="latitude" style="ellipse;whiteSpace=wrap;html=1;hachureGap=4;pointerEvents=0;fillColor=#e3c800;strokeColor=#B09500;fontColor=#000000;" parent="Rih6IUOuQE-28_pNxOKQ-1" vertex="1">
          <mxGeometry x="255" y="190" width="90" height="50" as="geometry" />
        </mxCell>
        <mxCell id="lKTr2YxRmawlyok761_Q-13" style="rounded=0;orthogonalLoop=1;jettySize=auto;html=1;exitX=0.5;exitY=0;exitDx=0;exitDy=0;entryX=0.75;entryY=1;entryDx=0;entryDy=0;endArrow=none;endFill=0;" parent="Rih6IUOuQE-28_pNxOKQ-1" source="lKTr2YxRmawlyok761_Q-12" target="XfI4zxfOpPHzSRZgf_Fb-0" edge="1">
          <mxGeometry relative="1" as="geometry" />
        </mxCell>
        <mxCell id="lKTr2YxRmawlyok761_Q-12" value="longitude" style="ellipse;whiteSpace=wrap;html=1;hachureGap=4;pointerEvents=0;fillColor=#e3c800;strokeColor=#B09500;fontColor=#000000;" parent="Rih6IUOuQE-28_pNxOKQ-1" vertex="1">
          <mxGeometry x="440" y="190" width="90" height="50" as="geometry" />
        </mxCell>
        <mxCell id="lKTr2YxRmawlyok761_Q-15" style="edgeStyle=orthogonalEdgeStyle;rounded=0;orthogonalLoop=1;jettySize=auto;html=1;exitX=0.5;exitY=0;exitDx=0;exitDy=0;endArrow=none;endFill=0;" parent="Rih6IUOuQE-28_pNxOKQ-1" source="lKTr2YxRmawlyok761_Q-14" target="XfI4zxfOpPHzSRZgf_Fb-0" edge="1">
          <mxGeometry relative="1" as="geometry" />
        </mxCell>
        <mxCell id="lKTr2YxRmawlyok761_Q-14" value="&lt;u&gt;id&lt;/u&gt;" style="ellipse;whiteSpace=wrap;html=1;hachureGap=4;pointerEvents=0;fillColor=#e3c800;strokeColor=#B09500;fontColor=#000000;" parent="Rih6IUOuQE-28_pNxOKQ-1" vertex="1">
          <mxGeometry x="345" y="240" width="90" height="50" as="geometry" />
        </mxCell>
        <mxCell id="QW9lvrsDVZ8piF68p5I8-1" style="edgeStyle=none;rounded=0;orthogonalLoop=1;jettySize=auto;html=1;exitX=0.5;exitY=0;exitDx=0;exitDy=0;entryX=0.75;entryY=1;entryDx=0;entryDy=0;endArrow=none;endFill=0;" edge="1" parent="Rih6IUOuQE-28_pNxOKQ-1" source="QW9lvrsDVZ8piF68p5I8-0" target="PRSKFAlq4l8zL4JBxz10-4">
          <mxGeometry relative="1" as="geometry" />
        </mxCell>
        <mxCell id="QW9lvrsDVZ8piF68p5I8-0" value="&lt;u&gt;id&lt;/u&gt;" style="ellipse;whiteSpace=wrap;html=1;hachureGap=4;pointerEvents=0;fillColor=#e3c800;strokeColor=#B09500;fontColor=#000000;" vertex="1" parent="Rih6IUOuQE-28_pNxOKQ-1">
          <mxGeometry x="50" y="800" width="90" height="50" as="geometry" />
        </mxCell>
        <mxCell id="QW9lvrsDVZ8piF68p5I8-3" style="edgeStyle=none;rounded=0;orthogonalLoop=1;jettySize=auto;html=1;exitX=0.5;exitY=0;exitDx=0;exitDy=0;entryX=1;entryY=1;entryDx=0;entryDy=0;endArrow=none;endFill=0;" edge="1" parent="Rih6IUOuQE-28_pNxOKQ-1" source="QW9lvrsDVZ8piF68p5I8-2" target="PRSKFAlq4l8zL4JBxz10-1">
          <mxGeometry relative="1" as="geometry" />
        </mxCell>
        <mxCell id="QW9lvrsDVZ8piF68p5I8-2" value="&lt;u&gt;id&lt;/u&gt;" style="ellipse;whiteSpace=wrap;html=1;hachureGap=4;pointerEvents=0;fillColor=#e3c800;strokeColor=#B09500;fontColor=#000000;" vertex="1" parent="Rih6IUOuQE-28_pNxOKQ-1">
          <mxGeometry x="-180" y="160" width="90" height="50" as="geometry" />
        </mxCell>
        <mxCell id="QW9lvrsDVZ8piF68p5I8-5" style="edgeStyle=none;rounded=0;orthogonalLoop=1;jettySize=auto;html=1;exitX=0;exitY=0.5;exitDx=0;exitDy=0;endArrow=none;endFill=0;" edge="1" parent="Rih6IUOuQE-28_pNxOKQ-1" source="QW9lvrsDVZ8piF68p5I8-4" target="PRSKFAlq4l8zL4JBxz10-2">
          <mxGeometry relative="1" as="geometry" />
        </mxCell>
        <mxCell id="QW9lvrsDVZ8piF68p5I8-4" value="&lt;u&gt;id&lt;/u&gt;" style="ellipse;whiteSpace=wrap;html=1;hachureGap=4;pointerEvents=0;fillColor=#e3c800;strokeColor=#B09500;fontColor=#000000;" vertex="1" parent="Rih6IUOuQE-28_pNxOKQ-1">
          <mxGeometry x="120" y="-185" width="90" height="50" as="geometry" />
        </mxCell>
        <mxCell id="QW9lvrsDVZ8piF68p5I8-7" style="edgeStyle=none;rounded=0;orthogonalLoop=1;jettySize=auto;html=1;exitX=0;exitY=0.5;exitDx=0;exitDy=0;endArrow=none;endFill=0;" edge="1" parent="Rih6IUOuQE-28_pNxOKQ-1" source="QW9lvrsDVZ8piF68p5I8-6" target="PRSKFAlq4l8zL4JBxz10-3">
          <mxGeometry relative="1" as="geometry" />
        </mxCell>
        <mxCell id="QW9lvrsDVZ8piF68p5I8-6" value="&lt;u&gt;id&lt;/u&gt;" style="ellipse;whiteSpace=wrap;html=1;hachureGap=4;pointerEvents=0;fillColor=#e3c800;strokeColor=#B09500;fontColor=#000000;" vertex="1" parent="Rih6IUOuQE-28_pNxOKQ-1">
          <mxGeometry x="1000" y="50" width="90" height="50" as="geometry" />
        </mxCell>
        <mxCell id="QW9lvrsDVZ8piF68p5I8-9" style="edgeStyle=none;rounded=0;orthogonalLoop=1;jettySize=auto;html=1;exitX=0;exitY=0.5;exitDx=0;exitDy=0;entryX=1;entryY=0.5;entryDx=0;entryDy=0;endArrow=none;endFill=0;" edge="1" parent="Rih6IUOuQE-28_pNxOKQ-1" source="QW9lvrsDVZ8piF68p5I8-8" target="50AnLVC14oPkvM5k95Td-1">
          <mxGeometry relative="1" as="geometry" />
        </mxCell>
        <mxCell id="QW9lvrsDVZ8piF68p5I8-8" value="&lt;u&gt;id&lt;/u&gt;" style="ellipse;whiteSpace=wrap;html=1;hachureGap=4;pointerEvents=0;fillColor=#e3c800;strokeColor=#B09500;fontColor=#000000;" vertex="1" parent="Rih6IUOuQE-28_pNxOKQ-1">
          <mxGeometry x="990" y="405" width="90" height="50" as="geometry" />
        </mxCell>
        <mxCell id="QW9lvrsDVZ8piF68p5I8-10" value="name" style="ellipse;whiteSpace=wrap;html=1;hachureGap=4;pointerEvents=0;fillColor=#e3c800;strokeColor=#B09500;fontColor=#000000;" vertex="1" parent="Rih6IUOuQE-28_pNxOKQ-1">
          <mxGeometry x="947" y="300" width="90" height="50" as="geometry" />
        </mxCell>
        <mxCell id="QW9lvrsDVZ8piF68p5I8-13" style="edgeStyle=none;rounded=0;orthogonalLoop=1;jettySize=auto;html=1;exitX=0;exitY=0.5;exitDx=0;exitDy=0;endArrow=none;endFill=0;" edge="1" parent="Rih6IUOuQE-28_pNxOKQ-1" source="QW9lvrsDVZ8piF68p5I8-12" target="PRSKFAlq4l8zL4JBxz10-3">
          <mxGeometry relative="1" as="geometry" />
        </mxCell>
        <mxCell id="QW9lvrsDVZ8piF68p5I8-12" value="name" style="ellipse;whiteSpace=wrap;html=1;hachureGap=4;pointerEvents=0;fillColor=#e3c800;strokeColor=#B09500;fontColor=#000000;" vertex="1" parent="Rih6IUOuQE-28_pNxOKQ-1">
          <mxGeometry x="1000" y="120" width="90" height="50" as="geometry" />
        </mxCell>
        <mxCell id="p1Hs3XNDr5uP8B9P8zwA-1" style="edgeStyle=none;rounded=0;orthogonalLoop=1;jettySize=auto;html=1;exitX=0;exitY=0.5;exitDx=0;exitDy=0;endArrow=none;endFill=0;" edge="1" parent="Rih6IUOuQE-28_pNxOKQ-1" source="p1Hs3XNDr5uP8B9P8zwA-0" target="v1jYdd2YxKOqB0_LmH17-0">
          <mxGeometry relative="1" as="geometry" />
        </mxCell>
        <mxCell id="p1Hs3XNDr5uP8B9P8zwA-0" value="&lt;u&gt;id&lt;/u&gt;" style="ellipse;whiteSpace=wrap;html=1;hachureGap=4;pointerEvents=0;fillColor=#e3c800;strokeColor=#B09500;fontColor=#000000;" vertex="1" parent="Rih6IUOuQE-28_pNxOKQ-1">
          <mxGeometry x="990" y="695" width="90" height="50" as="geometry" />
        </mxCell>
      </root>
    </mxGraphModel>
  </diagram>
</mxfile>
